<?xml version="1.0" encoding="utf-8" standalone="no"?>
<!DOCTYPE svg PUBLIC "-//W3C//DTD SVG 1.1//EN"
  "http://www.w3.org/Graphics/SVG/1.1/DTD/svg11.dtd">
<svg xmlns:xlink="http://www.w3.org/1999/xlink" width="437.286204pt" height="285.557612pt" viewBox="0 0 437.286204 285.557612" xmlns="http://www.w3.org/2000/svg" version="1.1">
 <metadata>
  <rdf:RDF xmlns:dc="http://purl.org/dc/elements/1.1/" xmlns:cc="http://creativecommons.org/ns#" xmlns:rdf="http://www.w3.org/1999/02/22-rdf-syntax-ns#">
   <cc:Work>
    <dc:type rdf:resource="http://purl.org/dc/dcmitype/StillImage"/>
    <dc:date>2024-11-11T17:15:17.874790</dc:date>
    <dc:format>image/svg+xml</dc:format>
    <dc:creator>
     <cc:Agent>
      <dc:title>Matplotlib v3.9.2, https://matplotlib.org/</dc:title>
     </cc:Agent>
    </dc:creator>
   </cc:Work>
  </rdf:RDF>
 </metadata>
 <defs>
  <style type="text/css">*{stroke-linejoin: round; stroke-linecap: butt}</style>
 </defs>
 <g id="figure_1">
  <g id="patch_1">
   <path d="M 0 285.557612 
L 437.286204 285.557612 
L 437.286204 -0 
L 0 -0 
z
" style="fill: #ffffff"/>
  </g>
  <g id="axes_1">
   <g id="patch_2">
    <path d="M 52.757756 234.148862 
L 341.667836 234.148862 
L 341.667836 12.388862 
L 52.757756 12.388862 
z
" style="fill: #ffffff"/>
   </g>
   <g id="QuadContourSet_1">
    <path d="M 55.032638 234.148862 
L 57.307521 234.148862 
L 59.582403 234.148862 
L 61.857286 234.148862 
L 64.132168 234.148862 
L 66.407051 234.148862 
L 68.681933 234.148862 
L 70.956816 234.148862 
L 73.231699 234.148862 
L 75.506581 234.148862 
L 77.781464 234.148862 
L 80.056346 234.148862 
L 82.331229 234.148862 
L 84.606111 234.148862 
L 86.880994 234.148862 
L 89.155876 234.148862 
L 91.430759 234.148862 
L 93.705641 234.148862 
L 95.980524 234.148862 
L 98.255406 234.148862 
L 100.530289 234.148862 
L 102.805171 234.148862 
L 105.080054 234.148862 
L 107.354936 234.148862 
L 109.629819 234.148862 
L 111.904701 234.148862 
L 114.179584 234.148862 
L 116.454466 234.148862 
L 118.729349 234.148862 
L 121.004231 234.148862 
L 123.279114 234.148862 
L 125.553996 234.148862 
L 127.828879 234.148862 
L 130.103761 234.148862 
L 132.378644 234.148862 
L 134.653527 234.148862 
L 136.928409 234.148862 
L 139.203292 234.148862 
L 141.478174 234.148862 
L 143.753057 234.148862 
L 146.027939 234.148862 
L 148.302822 234.148862 
L 150.577704 234.148862 
L 152.852587 234.148862 
L 155.127469 234.148862 
L 157.402352 234.148862 
L 159.677234 234.148862 
L 161.952117 234.148862 
L 164.226999 234.148862 
L 166.501882 234.148862 
L 168.776764 234.148862 
L 171.051647 234.148862 
L 173.326529 234.148862 
L 175.601412 234.148862 
L 177.876294 234.148862 
L 180.151177 234.148862 
L 182.426059 234.148862 
L 184.700942 234.148862 
L 186.975824 234.148862 
L 189.250707 234.148862 
L 191.52559 234.148862 
L 193.800472 234.148862 
L 194.383267 234.148862 
L 193.884376 189.796862 
L 193.800472 186.719321 
L 191.52559 148.196715 
L 191.260251 145.444862 
L 191.52559 144.385865 
L 193.800472 137.270358 
L 196.075355 132.188812 
L 198.350237 128.629136 
L 200.62512 126.228633 
L 202.900002 124.744062 
L 205.174885 124.023471 
L 207.449767 123.98578 
L 209.72465 124.608585 
L 211.999532 125.9235 
L 214.274415 128.018889 
L 216.549297 131.050937 
L 218.82418 135.265391 
L 221.099062 141.033663 
L 222.536032 145.444862 
L 223.373945 146.550708 
L 225.648827 150.509714 
L 227.92371 158.186177 
L 230.198592 177.047729 
L 231.064976 189.796862 
L 230.825978 234.148862 
L 232.473475 234.148862 
L 234.748357 234.148862 
L 237.02324 234.148862 
L 239.298122 234.148862 
L 241.573005 234.148862 
L 243.847887 234.148862 
L 246.12277 234.148862 
L 248.397653 234.148862 
L 250.672535 234.148862 
L 252.947418 234.148862 
L 255.2223 234.148862 
L 257.497183 234.148862 
L 259.772065 234.148862 
L 262.046948 234.148862 
L 264.32183 234.148862 
L 266.596713 234.148862 
L 268.871595 234.148862 
L 271.146478 234.148862 
L 273.42136 234.148862 
L 275.696243 234.148862 
L 277.971125 234.148862 
L 280.246008 234.148862 
L 282.52089 234.148862 
L 284.795773 234.148862 
L 287.070655 234.148862 
L 289.345538 234.148862 
L 291.62042 234.148862 
L 293.895303 234.148862 
L 296.170185 234.148862 
L 298.445068 234.148862 
L 300.71995 234.148862 
L 302.994833 234.148862 
L 305.269716 234.148862 
L 307.544598 234.148862 
L 309.819481 234.148862 
L 312.094363 234.148862 
L 314.369246 234.148862 
L 316.644128 234.148862 
L 318.919011 234.148862 
L 321.193893 234.148862 
L 323.468776 234.148862 
L 325.743658 234.148862 
L 328.018541 234.148862 
L 330.293423 234.148862 
L 332.568306 234.148862 
L 334.843188 234.148862 
L 337.118071 234.148862 
L 339.392953 234.148862 
L 341.667836 234.148862 
L 341.667836 189.796862 
L 341.667836 145.444862 
L 341.667836 101.092862 
L 341.667836 56.740862 
L 341.667836 12.388862 
L 339.392953 12.388862 
L 337.118071 12.388862 
L 334.843188 12.388862 
L 332.568306 12.388862 
L 330.293423 12.388862 
L 328.018541 12.388862 
L 325.743658 12.388862 
L 323.468776 12.388862 
L 321.193893 12.388862 
L 318.919011 12.388862 
L 316.644128 12.388862 
L 314.369246 12.388862 
L 312.094363 12.388862 
L 309.819481 12.388862 
L 307.544598 12.388862 
L 305.269716 12.388862 
L 302.994833 12.388862 
L 300.71995 12.388862 
L 298.445068 12.388862 
L 296.170185 12.388862 
L 293.895303 12.388862 
L 291.62042 12.388862 
L 289.345538 12.388862 
L 287.070655 12.388862 
L 284.795773 12.388862 
L 282.52089 12.388862 
L 280.246008 12.388862 
L 277.971125 12.388862 
L 275.696243 12.388862 
L 273.42136 12.388862 
L 271.146478 12.388862 
L 268.871595 12.388862 
L 266.596713 12.388862 
L 264.32183 12.388862 
L 262.046948 12.388862 
L 259.772065 12.388862 
L 257.497183 12.388862 
L 255.2223 12.388862 
L 252.947418 12.388862 
L 250.672535 12.388862 
L 248.397653 12.388862 
L 246.12277 12.388862 
L 243.847887 12.388862 
L 241.573005 12.388862 
L 239.298122 12.388862 
L 237.02324 12.388862 
L 234.748357 12.388862 
L 232.473475 12.388862 
L 230.198592 12.388862 
L 227.92371 12.388862 
L 225.648827 12.388862 
L 223.373945 12.388862 
L 221.099062 12.388862 
L 218.82418 12.388862 
L 216.549297 12.388862 
L 214.274415 12.388862 
L 211.999532 12.388862 
L 209.72465 12.388862 
L 207.449767 12.388862 
L 205.174885 12.388862 
L 202.900002 12.388862 
L 200.62512 12.388862 
L 198.350237 12.388862 
L 196.075355 12.388862 
L 193.800472 12.388862 
L 191.52559 12.388862 
L 189.250707 12.388862 
L 186.975824 12.388862 
L 184.700942 12.388862 
L 182.426059 12.388862 
L 180.151177 12.388862 
L 177.876294 12.388862 
L 175.601412 12.388862 
L 173.326529 12.388862 
L 171.051647 12.388862 
L 168.776764 12.388862 
L 166.501882 12.388862 
L 164.226999 12.388862 
L 161.952117 12.388862 
L 159.677234 12.388862 
L 157.402352 12.388862 
L 155.127469 12.388862 
L 152.852587 12.388862 
L 150.577704 12.388862 
L 148.302822 12.388862 
L 146.027939 12.388862 
L 143.753057 12.388862 
L 141.478174 12.388862 
L 139.203292 12.388862 
L 136.928409 12.388862 
L 134.653527 12.388862 
L 132.378644 12.388862 
L 130.103761 12.388862 
L 127.828879 12.388862 
L 125.553996 12.388862 
L 123.279114 12.388862 
L 121.004231 12.388862 
L 118.729349 12.388862 
L 116.454466 12.388862 
L 114.179584 12.388862 
L 111.904701 12.388862 
L 109.629819 12.388862 
L 107.354936 12.388862 
L 105.080054 12.388862 
L 102.805171 12.388862 
L 100.530289 12.388862 
L 98.255406 12.388862 
L 95.980524 12.388862 
L 93.705641 12.388862 
L 91.430759 12.388862 
L 89.155876 12.388862 
L 86.880994 12.388862 
L 84.606111 12.388862 
L 82.331229 12.388862 
L 80.056346 12.388862 
L 77.781464 12.388862 
L 75.506581 12.388862 
L 73.231699 12.388862 
L 70.956816 12.388862 
L 68.681933 12.388862 
L 66.407051 12.388862 
L 64.132168 12.388862 
L 61.857286 12.388862 
L 59.582403 12.388862 
L 57.307521 12.388862 
L 55.032638 12.388862 
L 52.757756 12.388862 
L 52.757756 56.740862 
L 52.757756 101.092862 
L 52.757756 145.444862 
L 52.757756 189.796862 
L 52.757756 234.148862 
z
M 267.906103 189.796862 
L 268.871595 184.571066 
L 271.146478 176.290392 
L 273.42136 170.716318 
L 275.696243 166.878643 
L 277.971125 164.234239 
L 280.246008 162.458274 
L 282.52089 161.349776 
L 284.795773 160.781485 
L 287.070655 160.673591 
L 289.345538 160.978415 
L 291.62042 161.671845 
L 293.895303 162.748437 
L 296.170185 164.218974 
L 298.445068 166.109926 
L 300.71995 168.464085 
L 302.994833 171.343275 
L 305.269716 174.831663 
L 307.544598 179.043316 
L 309.819481 184.129123 
L 311.939956 189.796862 
L 309.819481 194.069757 
L 307.544598 197.679918 
L 305.269716 200.474571 
L 302.994833 202.6215 
L 300.71995 204.24479 
L 298.445068 205.435341 
L 296.170185 206.260349 
L 293.895303 206.76833 
L 291.62042 206.993173 
L 289.345538 206.956314 
L 287.070655 206.668071 
L 284.795773 206.127927 
L 282.52089 205.323797 
L 280.246008 204.23032 
L 277.971125 202.805272 
L 275.696243 200.984373 
L 273.42136 198.671445 
L 271.146478 195.72491 
L 268.871595 191.930333 
z
" clip-path="url(#pd4be22b4e7)" style="fill: #350498"/>
    <path d="M 196.075355 234.148862 
L 198.321584 234.148862 
L 197.849619 189.796862 
L 198.350237 176.891535 
L 200.62512 154.314199 
L 202.900002 148.336979 
L 205.174885 146.529711 
L 207.449767 146.254351 
L 209.72465 146.692054 
L 211.999532 147.563026 
L 214.274415 148.808012 
L 216.549297 150.502193 
L 218.82418 152.863213 
L 221.099062 156.331347 
L 223.373945 161.822399 
L 225.648827 171.344799 
L 227.883339 189.796862 
L 227.70021 234.148862 
L 227.92371 234.148862 
L 230.198592 234.148862 
L 230.825978 234.148862 
L 231.064976 189.796862 
L 230.198592 177.047729 
L 227.92371 158.186177 
L 225.648827 150.509714 
L 223.373945 146.550708 
L 222.536032 145.444862 
L 221.099062 141.033663 
L 218.82418 135.265391 
L 216.549297 131.050937 
L 214.274415 128.018889 
L 211.999532 125.9235 
L 209.72465 124.608585 
L 207.449767 123.98578 
L 205.174885 124.023471 
L 202.900002 124.744062 
L 200.62512 126.228633 
L 198.350237 128.629136 
L 196.075355 132.188812 
L 193.800472 137.270358 
L 191.52559 144.385865 
L 191.260251 145.444862 
L 191.52559 148.196715 
L 193.800472 186.719321 
L 193.884376 189.796862 
L 194.383267 234.148862 
z
M 268.871595 191.930333 
L 271.146478 195.72491 
L 273.42136 198.671445 
L 275.696243 200.984373 
L 277.971125 202.805272 
L 280.246008 204.23032 
L 282.52089 205.323797 
L 284.795773 206.127927 
L 287.070655 206.668071 
L 289.345538 206.956314 
L 291.62042 206.993173 
L 293.895303 206.76833 
L 296.170185 206.260349 
L 298.445068 205.435341 
L 300.71995 204.24479 
L 302.994833 202.6215 
L 305.269716 200.474571 
L 307.544598 197.679918 
L 309.819481 194.069757 
L 311.939956 189.796862 
L 309.819481 184.129123 
L 307.544598 179.043316 
L 305.269716 174.831663 
L 302.994833 171.343275 
L 300.71995 168.464085 
L 298.445068 166.109926 
L 296.170185 164.218974 
L 293.895303 162.748437 
L 291.62042 161.671845 
L 289.345538 160.978415 
L 287.070655 160.673591 
L 284.795773 160.781485 
L 282.52089 161.349776 
L 280.246008 162.458274 
L 277.971125 164.234239 
L 275.696243 166.878643 
L 273.42136 170.716318 
L 271.146478 176.290392 
L 268.871595 184.571066 
L 267.906103 189.796862 
z
" clip-path="url(#pd4be22b4e7)" style="fill: #6f00a8"/>
    <path d="M 198.350237 234.148862 
L 200.62512 234.148862 
L 201.328717 234.148862 
L 200.798929 189.796862 
L 202.900002 171.520967 
L 205.174885 163.012591 
L 207.449767 159.178815 
L 209.72465 157.637828 
L 211.999532 157.469344 
L 214.274415 158.340197 
L 216.549297 160.236609 
L 218.82418 163.428928 
L 221.099062 168.569449 
L 223.373945 177.094089 
L 225.400673 189.796862 
L 225.179085 234.148862 
L 225.648827 234.148862 
L 227.70021 234.148862 
L 227.883339 189.796862 
L 225.648827 171.344799 
L 223.373945 161.822399 
L 221.099062 156.331347 
L 218.82418 152.863213 
L 216.549297 150.502193 
L 214.274415 148.808012 
L 211.999532 147.563026 
L 209.72465 146.692054 
L 207.449767 146.254351 
L 205.174885 146.529711 
L 202.900002 148.336979 
L 200.62512 154.314199 
L 198.350237 176.891535 
L 197.849619 189.796862 
L 198.321584 234.148862 
z
" clip-path="url(#pd4be22b4e7)" style="fill: #a31e9a"/>
    <path d="M 202.900002 234.148862 
L 204.106557 234.148862 
L 203.528207 189.796862 
L 205.174885 179.495471 
L 207.449767 172.103278 
L 209.72465 168.583602 
L 211.999532 167.375661 
L 214.274415 167.872382 
L 216.549297 169.971025 
L 218.82418 173.994643 
L 221.099062 180.807552 
L 222.988718 189.796862 
L 222.700524 234.148862 
L 223.373945 234.148862 
L 225.179085 234.148862 
L 225.400673 189.796862 
L 223.373945 177.094089 
L 221.099062 168.569449 
L 218.82418 163.428928 
L 216.549297 160.236609 
L 214.274415 158.340197 
L 211.999532 157.469344 
L 209.72465 157.637828 
L 207.449767 159.178815 
L 205.174885 163.012591 
L 202.900002 171.520967 
L 200.798929 189.796862 
L 201.328717 234.148862 
z
" clip-path="url(#pd4be22b4e7)" style="fill: #cc4778"/>
    <path d="M 205.174885 234.148862 
L 207.045922 234.148862 
L 206.388359 189.796862 
L 207.449767 185.027742 
L 209.72465 179.529376 
L 211.999532 177.281978 
L 214.274415 177.404567 
L 216.549297 179.70544 
L 218.82418 184.560359 
L 220.364932 189.796862 
L 219.925005 234.148862 
L 221.099062 234.148862 
L 222.700524 234.148862 
L 222.988718 189.796862 
L 221.099062 180.807552 
L 218.82418 173.994643 
L 216.549297 169.971025 
L 214.274415 167.872382 
L 211.999532 167.375661 
L 209.72465 168.583602 
L 207.449767 172.103278 
L 205.174885 179.495471 
L 203.528207 189.796862 
L 204.106557 234.148862 
z
" clip-path="url(#pd4be22b4e7)" style="fill: #e97158"/>
    <path d="M 207.449767 234.148862 
L 209.72465 234.148862 
L 211.730065 234.148862 
L 210.201377 189.796862 
L 211.999532 187.188296 
L 214.274415 186.936752 
L 216.549297 189.439856 
L 216.721635 189.796862 
L 216.549297 198.627509 
L 215.231985 234.148862 
L 216.549297 234.148862 
L 218.82418 234.148862 
L 219.925005 234.148862 
L 220.364932 189.796862 
L 218.82418 184.560359 
L 216.549297 179.70544 
L 214.274415 177.404567 
L 211.999532 177.281978 
L 209.72465 179.529376 
L 207.449767 185.027742 
L 206.388359 189.796862 
L 207.045922 234.148862 
z
" clip-path="url(#pd4be22b4e7)" style="fill: #fba238"/>
    <path d="M 211.999532 234.148862 
L 214.274415 234.148862 
L 215.231985 234.148862 
L 216.549297 198.627509 
L 216.721635 189.796862 
L 216.549297 189.439856 
L 214.274415 186.936752 
L 211.999532 187.188296 
L 210.201377 189.796862 
L 211.730065 234.148862 
z
" clip-path="url(#pd4be22b4e7)" style="fill: #fada24"/>
   </g>
   <g id="matplotlib.axis_1">
    <g id="xtick_1">
     <g id="line2d_1">
      <defs>
       <path id="ma6b8bb2c5c" d="M 0 0 
L 0 3.5 
" style="stroke: #000000; stroke-width: 0.8"/>
      </defs>
      <g>
       <use xlink:href="#ma6b8bb2c5c" x="52.757756" y="234.148862" style="stroke: #000000; stroke-width: 0.8"/>
      </g>
     </g>
     <g id="text_1">
      <!-- $\mathdefault{10^{-7}}$ -->
      <g transform="translate(38.75826 251.526587) scale(0.15 -0.15)">
       <defs>
        <path id="CMR17-31" d="M 1702 4058 
C 1702 4192 1696 4192 1606 4192 
C 1357 3916 979 3827 621 3827 
C 602 3827 570 3827 563 3808 
C 557 3795 557 3782 557 3648 
C 755 3648 1088 3686 1344 3839 
L 1344 461 
C 1344 236 1331 160 781 160 
L 589 160 
L 589 0 
C 896 0 1216 0 1523 0 
C 1830 0 2150 0 2458 0 
L 2458 160 
L 2266 160 
C 1715 160 1702 230 1702 458 
L 1702 4058 
z
" transform="scale(0.015625)"/>
        <path id="CMR17-30" d="M 2688 2025 
C 2688 2416 2682 3080 2413 3591 
C 2176 4039 1798 4198 1466 4198 
C 1158 4198 768 4058 525 3597 
C 269 3118 243 2524 243 2025 
C 243 1661 250 1106 448 619 
C 723 -39 1216 -128 1466 -128 
C 1760 -128 2208 -7 2470 600 
C 2662 1042 2688 1559 2688 2025 
z
M 1466 -26 
C 1056 -26 813 325 723 812 
C 653 1188 653 1738 653 2096 
C 653 2588 653 2997 736 3387 
C 858 3929 1216 4096 1466 4096 
C 1728 4096 2067 3923 2189 3400 
C 2272 3036 2278 2607 2278 2096 
C 2278 1680 2278 1169 2202 792 
C 2067 95 1690 -26 1466 -26 
z
" transform="scale(0.015625)"/>
        <path id="CMSY10-0" d="M 4218 1472 
C 4326 1472 4442 1472 4442 1600 
C 4442 1728 4326 1728 4218 1728 
L 755 1728 
C 646 1728 531 1728 531 1600 
C 531 1472 646 1472 755 1472 
L 4218 1472 
z
" transform="scale(0.015625)"/>
        <path id="CMR17-37" d="M 2886 3941 
L 2886 4081 
L 1382 4081 
C 634 4081 621 4165 595 4288 
L 480 4288 
L 294 3094 
L 410 3094 
C 429 3215 474 3540 550 3661 
C 589 3712 1062 3712 1171 3712 
L 2579 3712 
L 1869 2661 
C 1395 1954 1069 999 1069 165 
C 1069 89 1069 -128 1299 -128 
C 1530 -128 1530 89 1530 171 
L 1530 465 
C 1530 1508 1709 2196 2003 2636 
L 2886 3941 
z
" transform="scale(0.015625)"/>
       </defs>
       <use xlink:href="#CMR17-31" transform="scale(0.996264)"/>
       <use xlink:href="#CMR17-30" transform="translate(45.690477 0) scale(0.996264)"/>
       <use xlink:href="#CMSY10-0" transform="translate(91.380954 36.153639) scale(0.697382)"/>
       <use xlink:href="#CMR17-37" transform="translate(145.621947 36.153639) scale(0.697382)"/>
      </g>
     </g>
    </g>
    <g id="xtick_2">
     <g id="line2d_2">
      <g>
       <use xlink:href="#ma6b8bb2c5c" x="119.429313" y="234.148862" style="stroke: #000000; stroke-width: 0.8"/>
      </g>
     </g>
     <g id="text_2">
      <!-- $\mathdefault{10^{-4}}$ -->
      <g transform="translate(105.429817 251.526587) scale(0.15 -0.15)">
       <defs>
        <path id="CMR17-34" d="M 2150 4122 
C 2150 4256 2144 4256 2029 4256 
L 128 1254 
L 128 1088 
L 1779 1088 
L 1779 457 
C 1779 224 1766 160 1318 160 
L 1197 160 
L 1197 0 
C 1402 0 1747 0 1965 0 
C 2182 0 2528 0 2733 0 
L 2733 160 
L 2611 160 
C 2163 160 2150 224 2150 457 
L 2150 1088 
L 2803 1088 
L 2803 1254 
L 2150 1254 
L 2150 4122 
z
M 1798 3703 
L 1798 1254 
L 256 1254 
L 1798 3703 
z
" transform="scale(0.015625)"/>
       </defs>
       <use xlink:href="#CMR17-31" transform="scale(0.996264)"/>
       <use xlink:href="#CMR17-30" transform="translate(45.690477 0) scale(0.996264)"/>
       <use xlink:href="#CMSY10-0" transform="translate(91.380954 36.153639) scale(0.697382)"/>
       <use xlink:href="#CMR17-34" transform="translate(145.621947 36.153639) scale(0.697382)"/>
      </g>
     </g>
    </g>
    <g id="xtick_3">
     <g id="line2d_3">
      <g>
       <use xlink:href="#ma6b8bb2c5c" x="186.10087" y="234.148862" style="stroke: #000000; stroke-width: 0.8"/>
      </g>
     </g>
     <g id="text_3">
      <!-- $\mathdefault{10^{-1}}$ -->
      <g transform="translate(172.101373 251.526587) scale(0.15 -0.15)">
       <use xlink:href="#CMR17-31" transform="scale(0.996264)"/>
       <use xlink:href="#CMR17-30" transform="translate(45.690477 0) scale(0.996264)"/>
       <use xlink:href="#CMSY10-0" transform="translate(91.380954 36.153639) scale(0.697382)"/>
       <use xlink:href="#CMR17-31" transform="translate(145.621947 36.153639) scale(0.697382)"/>
      </g>
     </g>
    </g>
    <g id="xtick_4">
     <g id="line2d_4">
      <g>
       <use xlink:href="#ma6b8bb2c5c" x="252.772427" y="234.148862" style="stroke: #000000; stroke-width: 0.8"/>
      </g>
     </g>
     <g id="text_4">
      <!-- $\mathdefault{10^{2}}$ -->
      <g transform="translate(242.841003 251.526587) scale(0.15 -0.15)">
       <defs>
        <path id="CMR17-32" d="M 2669 989 
L 2554 989 
C 2490 536 2438 459 2413 420 
C 2381 369 1920 369 1830 369 
L 602 369 
C 832 619 1280 1072 1824 1597 
C 2214 1967 2669 2402 2669 3035 
C 2669 3790 2067 4224 1395 4224 
C 691 4224 262 3604 262 3030 
C 262 2780 448 2748 525 2748 
C 589 2748 781 2787 781 3010 
C 781 3207 614 3264 525 3264 
C 486 3264 448 3258 422 3245 
C 544 3790 915 4058 1306 4058 
C 1862 4058 2227 3617 2227 3035 
C 2227 2479 1901 2000 1536 1584 
L 262 146 
L 262 0 
L 2515 0 
L 2669 989 
z
" transform="scale(0.015625)"/>
       </defs>
       <use xlink:href="#CMR17-31" transform="scale(0.996264)"/>
       <use xlink:href="#CMR17-30" transform="translate(45.690477 0) scale(0.996264)"/>
       <use xlink:href="#CMR17-32" transform="translate(91.380954 36.153639) scale(0.697382)"/>
      </g>
     </g>
    </g>
    <g id="xtick_5">
     <g id="line2d_5">
      <g>
       <use xlink:href="#ma6b8bb2c5c" x="319.443984" y="234.148862" style="stroke: #000000; stroke-width: 0.8"/>
      </g>
     </g>
     <g id="text_5">
      <!-- $\mathdefault{10^{5}}$ -->
      <g transform="translate(309.51256 251.526587) scale(0.15 -0.15)">
       <defs>
        <path id="CMR17-35" d="M 730 3692 
C 794 3666 1056 3584 1325 3584 
C 1920 3584 2246 3911 2432 4100 
C 2432 4157 2432 4192 2394 4192 
C 2387 4192 2374 4192 2323 4163 
C 2099 4058 1837 3973 1517 3973 
C 1325 3973 1037 3999 723 4139 
C 653 4171 640 4171 634 4171 
C 602 4171 595 4164 595 4037 
L 595 2203 
C 595 2089 595 2057 659 2057 
C 691 2057 704 2070 736 2114 
C 941 2401 1222 2522 1542 2522 
C 1766 2522 2246 2382 2246 1289 
C 2246 1085 2246 715 2054 421 
C 1894 159 1645 25 1370 25 
C 947 25 518 320 403 814 
C 429 807 480 795 506 795 
C 589 795 749 840 749 1038 
C 749 1210 627 1280 506 1280 
C 358 1280 262 1190 262 1011 
C 262 454 704 -128 1382 -128 
C 2042 -128 2669 440 2669 1264 
C 2669 2030 2170 2624 1549 2624 
C 1222 2624 947 2503 730 2274 
L 730 3692 
z
" transform="scale(0.015625)"/>
       </defs>
       <use xlink:href="#CMR17-31" transform="scale(0.996264)"/>
       <use xlink:href="#CMR17-30" transform="translate(45.690477 0) scale(0.996264)"/>
       <use xlink:href="#CMR17-35" transform="translate(91.380954 36.153639) scale(0.697382)"/>
      </g>
     </g>
    </g>
    <g id="text_6">
     <!-- $\tau/s$ -->
     <g transform="translate(182.391187 273.376292) scale(0.2 -0.2)">
      <defs>
       <path id="CMMI12-1c" d="M 1837 2408 
L 2899 2408 
C 2982 2408 3194 2408 3194 2612 
C 3194 2752 3072 2752 2957 2752 
L 1197 2752 
C 1050 2752 832 2752 538 2440 
C 371 2255 166 1917 166 1879 
C 166 1841 198 1828 237 1828 
C 282 1828 288 1847 320 1885 
C 653 2408 986 2408 1146 2408 
L 1677 2408 
L 1011 223 
C 979 127 979 114 979 95 
C 979 25 1024 -64 1152 -64 
C 1350 -64 1382 108 1402 203 
L 1837 2408 
z
" transform="scale(0.015625)"/>
       <path id="CMMI12-3d" d="M 2746 4562 
C 2746 4569 2784 4666 2784 4678 
C 2784 4755 2720 4800 2669 4800 
C 2637 4800 2579 4800 2528 4659 
L 384 -1363 
C 384 -1370 346 -1465 346 -1478 
C 346 -1555 410 -1600 461 -1600 
C 499 -1600 557 -1593 602 -1459 
L 2746 4562 
z
" transform="scale(0.015625)"/>
       <path id="CMMI12-73" d="M 1459 1280 
C 1568 1261 1741 1223 1779 1216 
C 1862 1192 2150 1090 2150 783 
C 2150 586 1971 70 1229 70 
C 1094 70 614 70 486 436 
C 742 404 870 603 870 745 
C 870 880 781 950 653 950 
C 512 950 326 841 326 552 
C 326 173 710 -64 1222 -64 
C 2195 -64 2483 651 2483 984 
C 2483 1079 2483 1258 2278 1462 
C 2118 1616 1965 1648 1619 1718 
C 1446 1756 1171 1814 1171 2101 
C 1171 2229 1286 2689 1894 2689 
C 2163 2689 2426 2589 2490 2368 
C 2208 2368 2195 2125 2195 2119 
C 2195 1984 2317 1946 2374 1946 
C 2464 1946 2643 2015 2643 2281 
C 2643 2545 2400 2816 1901 2816 
C 1062 2816 838 2160 838 1899 
C 838 1414 1312 1312 1459 1280 
z
" transform="scale(0.015625)"/>
      </defs>
      <use xlink:href="#CMMI12-1c" transform="scale(0.996264)"/>
      <use xlink:href="#CMMI12-3d" transform="translate(53.491165 0) scale(0.996264)"/>
      <use xlink:href="#CMMI12-73" transform="translate(102.266084 0) scale(0.996264)"/>
     </g>
    </g>
   </g>
   <g id="matplotlib.axis_2">
    <g id="ytick_1">
     <g id="line2d_6">
      <defs>
       <path id="m00102c2484" d="M 0 0 
L -3.5 0 
" style="stroke: #000000; stroke-width: 0.8"/>
      </defs>
      <g>
       <use xlink:href="#m00102c2484" x="52.757756" y="234.148862" style="stroke: #000000; stroke-width: 0.8"/>
      </g>
     </g>
     <g id="text_7">
      <!-- $\mathdefault{5}$ -->
      <g transform="translate(38.441518 239.337725) scale(0.15 -0.15)">
       <use xlink:href="#CMR17-35" transform="scale(0.996264)"/>
      </g>
     </g>
    </g>
    <g id="ytick_2">
     <g id="line2d_7">
      <g>
       <use xlink:href="#m00102c2484" x="52.757756" y="189.796862" style="stroke: #000000; stroke-width: 0.8"/>
      </g>
     </g>
     <g id="text_8">
      <!-- $\mathdefault{15}$ -->
      <g transform="translate(31.12528 194.985725) scale(0.15 -0.15)">
       <use xlink:href="#CMR17-31" transform="scale(0.996264)"/>
       <use xlink:href="#CMR17-35" transform="translate(45.690477 0) scale(0.996264)"/>
      </g>
     </g>
    </g>
    <g id="ytick_3">
     <g id="line2d_8">
      <g>
       <use xlink:href="#m00102c2484" x="52.757756" y="145.444862" style="stroke: #000000; stroke-width: 0.8"/>
      </g>
     </g>
     <g id="text_9">
      <!-- $\mathdefault{25}$ -->
      <g transform="translate(31.12528 150.633725) scale(0.15 -0.15)">
       <use xlink:href="#CMR17-32" transform="scale(0.996264)"/>
       <use xlink:href="#CMR17-35" transform="translate(45.690477 0) scale(0.996264)"/>
      </g>
     </g>
    </g>
    <g id="ytick_4">
     <g id="line2d_9">
      <g>
       <use xlink:href="#m00102c2484" x="52.757756" y="101.092862" style="stroke: #000000; stroke-width: 0.8"/>
      </g>
     </g>
     <g id="text_10">
      <!-- $\mathdefault{35}$ -->
      <g transform="translate(31.12528 106.281725) scale(0.15 -0.15)">
       <defs>
        <path id="CMR17-33" d="M 1414 2157 
C 1984 2157 2234 1662 2234 1090 
C 2234 320 1824 25 1453 25 
C 1114 25 563 194 390 693 
C 422 680 454 680 486 680 
C 640 680 755 782 755 948 
C 755 1133 614 1216 486 1216 
C 378 1216 211 1165 211 926 
C 211 335 787 -128 1466 -128 
C 2176 -128 2720 430 2720 1085 
C 2720 1707 2208 2157 1600 2227 
C 2086 2328 2554 2756 2554 3329 
C 2554 3820 2048 4179 1472 4179 
C 890 4179 378 3829 378 3329 
C 378 3110 544 3072 627 3072 
C 762 3072 877 3155 877 3321 
C 877 3486 762 3569 627 3569 
C 602 3569 570 3569 544 3557 
C 730 3959 1235 4032 1459 4032 
C 1683 4032 2106 3925 2106 3320 
C 2106 3143 2080 2828 1862 2550 
C 1670 2304 1453 2304 1242 2284 
C 1210 2284 1062 2269 1037 2269 
C 992 2263 966 2257 966 2208 
C 966 2163 973 2157 1101 2157 
L 1414 2157 
z
" transform="scale(0.015625)"/>
       </defs>
       <use xlink:href="#CMR17-33" transform="scale(0.996264)"/>
       <use xlink:href="#CMR17-35" transform="translate(45.690477 0) scale(0.996264)"/>
      </g>
     </g>
    </g>
    <g id="ytick_5">
     <g id="line2d_10">
      <g>
       <use xlink:href="#m00102c2484" x="52.757756" y="56.740862" style="stroke: #000000; stroke-width: 0.8"/>
      </g>
     </g>
     <g id="text_11">
      <!-- $\mathdefault{45}$ -->
      <g transform="translate(31.12528 61.929725) scale(0.15 -0.15)">
       <use xlink:href="#CMR17-34" transform="scale(0.996264)"/>
       <use xlink:href="#CMR17-35" transform="translate(45.690477 0) scale(0.996264)"/>
      </g>
     </g>
    </g>
    <g id="ytick_6">
     <g id="line2d_11">
      <g>
       <use xlink:href="#m00102c2484" x="52.757756" y="12.388862" style="stroke: #000000; stroke-width: 0.8"/>
      </g>
     </g>
     <g id="text_12">
      <!-- $\mathdefault{55}$ -->
      <g transform="translate(31.12528 17.577725) scale(0.15 -0.15)">
       <use xlink:href="#CMR17-35" transform="scale(0.996264)"/>
       <use xlink:href="#CMR17-35" transform="translate(45.690477 0) scale(0.996264)"/>
      </g>
     </g>
    </g>
    <g id="text_13">
     <!-- $R_{\rm ct}/\Omega$ -->
     <g transform="translate(22.14396 148.161865) rotate(-90) scale(0.2 -0.2)">
      <defs>
       <path id="CMMI12-52" d="M 2355 3924 
C 2413 4160 2438 4160 2688 4160 
L 3149 4160 
C 3699 4160 4109 3995 4109 3499 
C 4109 3175 3942 2240 2656 2240 
L 1933 2240 
L 2355 3924 
z
M 3245 2169 
C 4038 2341 4659 2851 4659 3398 
C 4659 3894 4154 4352 3264 4352 
L 1530 4352 
C 1402 4352 1344 4352 1344 4226 
C 1344 4160 1389 4160 1510 4160 
C 1894 4160 1894 4112 1894 4045 
C 1894 4033 1894 3994 1869 3899 
L 1005 479 
C 947 256 934 192 493 192 
C 346 192 301 192 301 71 
C 301 7 371 7 390 7 
C 506 7 640 7 762 7 
L 1517 7 
C 1632 7 1766 7 1882 7 
C 1933 7 2003 7 2003 128 
C 2003 192 1946 192 1850 192 
C 1459 192 1459 243 1459 306 
C 1459 313 1459 357 1472 407 
L 1901 2112 
L 2669 2112 
C 3277 2112 3392 1731 3392 1522 
C 3392 1427 3328 1179 3283 1014 
C 3213 723 3194 652 3194 532 
C 3194 82 3565 -128 3994 -128 
C 4512 -128 4736 501 4736 591 
C 4736 635 4704 654 4666 654 
C 4614 654 4602 616 4589 565 
C 4435 114 4173 0 4013 0 
C 3853 0 3750 70 3750 356 
C 3750 509 3827 1088 3834 1120 
C 3866 1355 3866 1380 3866 1432 
C 3866 1896 3488 2093 3245 2169 
z
" transform="scale(0.015625)"/>
       <path id="CMR17-63" d="M 2234 2240 
C 2112 2240 1933 2240 1933 2017 
C 1933 1838 2080 1787 2163 1787 
C 2208 1787 2394 1807 2394 2024 
C 2394 2467 1958 2803 1466 2803 
C 787 2803 211 2178 211 1363 
C 211 516 813 -64 1466 -64 
C 2259 -64 2458 677 2458 748 
C 2458 774 2451 793 2406 793 
C 2362 793 2355 787 2330 703 
C 2163 180 1798 51 1523 51 
C 1114 51 621 427 621 1369 
C 621 2338 1094 2688 1472 2688 
C 1722 2688 2093 2573 2234 2240 
z
" transform="scale(0.015625)"/>
       <path id="CMR17-74" d="M 966 2560 
L 1862 2560 
L 1862 2725 
L 966 2725 
L 966 3904 
L 851 3904 
C 838 3245 614 2668 70 2668 
L 70 2560 
L 627 2560 
L 627 771 
C 627 650 627 -64 1370 -64 
C 1747 -64 1965 306 1965 777 
L 1965 1140 
L 1850 1140 
L 1850 783 
C 1850 344 1677 51 1408 51 
C 1222 51 966 178 966 758 
L 966 2560 
z
" transform="scale(0.015625)"/>
       <path id="CMR17-a" d="M 4038 935 
L 3923 935 
C 3866 641 3846 563 3814 461 
C 3782 365 3763 314 3392 314 
L 2874 314 
C 2944 686 3098 961 3366 1391 
C 3699 1935 3974 2377 3974 2910 
C 3974 3775 3155 4480 2138 4480 
C 1094 4480 294 3768 294 2910 
C 294 2377 576 1922 890 1416 
C 1171 961 1325 686 1395 314 
L 877 314 
C 512 314 493 365 461 454 
C 422 557 410 641 346 935 
L 230 935 
L 416 0 
L 1382 0 
C 1517 0 1523 6 1523 102 
C 1523 558 1286 1154 1178 1429 
C 973 1929 781 2416 781 2916 
C 781 3871 1466 4377 2131 4377 
C 2829 4377 3488 3851 3488 2916 
C 3488 2422 3315 1981 3078 1397 
C 2976 1135 2746 551 2746 102 
C 2746 0 2752 0 2886 0 
L 3853 0 
L 4038 935 
z
" transform="scale(0.015625)"/>
      </defs>
      <use xlink:href="#CMMI12-52" transform="scale(0.996264)"/>
      <use xlink:href="#CMR17-63" transform="translate(74.250826 -14.943915) scale(0.697382)"/>
      <use xlink:href="#CMR17-74" transform="translate(102.590657 -14.943915) scale(0.697382)"/>
      <use xlink:href="#CMMI12-3d" transform="translate(127.78521 0) scale(0.996264)"/>
      <use xlink:href="#CMR17-a" transform="translate(176.560129 0) scale(0.996264)"/>
     </g>
    </g>
   </g>
   <g id="patch_3">
    <path d="M 52.757756 234.148862 
L 52.757756 12.388862 
" style="fill: none; stroke: #000000; stroke-width: 0.8; stroke-linejoin: miter; stroke-linecap: square"/>
   </g>
   <g id="patch_4">
    <path d="M 341.667836 234.148862 
L 341.667836 12.388862 
" style="fill: none; stroke: #000000; stroke-width: 0.8; stroke-linejoin: miter; stroke-linecap: square"/>
   </g>
   <g id="patch_5">
    <path d="M 52.757756 234.148862 
L 341.667836 234.148862 
" style="fill: none; stroke: #000000; stroke-width: 0.8; stroke-linejoin: miter; stroke-linecap: square"/>
   </g>
   <g id="patch_6">
    <path d="M 52.757756 12.388862 
L 341.667836 12.388862 
" style="fill: none; stroke: #000000; stroke-width: 0.8; stroke-linejoin: miter; stroke-linecap: square"/>
   </g>
  </g>
  <g id="axes_2">
   <g id="patch_7">
    <path d="M 359.724716 234.148862 
L 370.812716 234.148862 
L 370.812716 12.388862 
L 359.724716 12.388862 
z
" style="fill: #ffffff"/>
   </g>
   <g id="QuadMesh_1">
    <path d="M 359.724716 234.148862 
L 370.812716 234.148862 
L 370.812716 202.468862 
L 359.724716 202.468862 
L 359.724716 234.148862 
" clip-path="url(#p86c1db88e1)" style="fill: #350498"/>
    <path d="M 359.724716 202.468862 
L 370.812716 202.468862 
L 370.812716 170.788862 
L 359.724716 170.788862 
L 359.724716 202.468862 
" clip-path="url(#p86c1db88e1)" style="fill: #6f00a8"/>
    <path d="M 359.724716 170.788862 
L 370.812716 170.788862 
L 370.812716 139.108862 
L 359.724716 139.108862 
L 359.724716 170.788862 
" clip-path="url(#p86c1db88e1)" style="fill: #a31e9a"/>
    <path d="M 359.724716 139.108862 
L 370.812716 139.108862 
L 370.812716 107.428862 
L 359.724716 107.428862 
L 359.724716 139.108862 
" clip-path="url(#p86c1db88e1)" style="fill: #cc4778"/>
    <path d="M 359.724716 107.428862 
L 370.812716 107.428862 
L 370.812716 75.748862 
L 359.724716 75.748862 
L 359.724716 107.428862 
" clip-path="url(#p86c1db88e1)" style="fill: #e97158"/>
    <path d="M 359.724716 75.748862 
L 370.812716 75.748862 
L 370.812716 44.068862 
L 359.724716 44.068862 
L 359.724716 75.748862 
" clip-path="url(#p86c1db88e1)" style="fill: #fba238"/>
    <path d="M 359.724716 44.068862 
L 370.812716 44.068862 
L 370.812716 12.388862 
L 359.724716 12.388862 
L 359.724716 44.068862 
" clip-path="url(#p86c1db88e1)" style="fill: #fada24"/>
   </g>
   <g id="matplotlib.axis_3"/>
   <g id="matplotlib.axis_4">
    <g id="ytick_7">
     <g id="line2d_12">
      <defs>
       <path id="m5b4c7c20cc" d="M 0 0 
L 3.5 0 
" style="stroke: #000000; stroke-width: 0.8"/>
      </defs>
      <g>
       <use xlink:href="#m5b4c7c20cc" x="370.812716" y="234.148862" style="stroke: #000000; stroke-width: 0.8"/>
      </g>
     </g>
     <g id="text_14">
      <!-- $\mathdefault{0.000}$ -->
      <g transform="translate(377.812716 239.337725) scale(0.15 -0.15)">
       <defs>
        <path id="CMMI12-3a" d="M 1178 307 
C 1178 492 1024 619 870 619 
C 685 619 557 466 557 313 
C 557 128 710 0 864 0 
C 1050 0 1178 153 1178 307 
z
" transform="scale(0.015625)"/>
       </defs>
       <use xlink:href="#CMR17-30" transform="scale(0.996264)"/>
       <use xlink:href="#CMMI12-3a" transform="translate(45.690477 0) scale(0.996264)"/>
       <use xlink:href="#CMR17-30" transform="translate(72.787654 0) scale(0.996264)"/>
       <use xlink:href="#CMR17-30" transform="translate(118.478131 0) scale(0.996264)"/>
       <use xlink:href="#CMR17-30" transform="translate(164.168608 0) scale(0.996264)"/>
      </g>
     </g>
    </g>
    <g id="ytick_8">
     <g id="line2d_13">
      <g>
       <use xlink:href="#m5b4c7c20cc" x="370.812716" y="202.468862" style="stroke: #000000; stroke-width: 0.8"/>
      </g>
     </g>
     <g id="text_15">
      <!-- $\mathdefault{0.015}$ -->
      <g transform="translate(377.812716 207.657725) scale(0.15 -0.15)">
       <use xlink:href="#CMR17-30" transform="scale(0.996264)"/>
       <use xlink:href="#CMMI12-3a" transform="translate(45.690477 0) scale(0.996264)"/>
       <use xlink:href="#CMR17-30" transform="translate(72.787654 0) scale(0.996264)"/>
       <use xlink:href="#CMR17-31" transform="translate(118.478131 0) scale(0.996264)"/>
       <use xlink:href="#CMR17-35" transform="translate(164.168608 0) scale(0.996264)"/>
      </g>
     </g>
    </g>
    <g id="ytick_9">
     <g id="line2d_14">
      <g>
       <use xlink:href="#m5b4c7c20cc" x="370.812716" y="170.788862" style="stroke: #000000; stroke-width: 0.8"/>
      </g>
     </g>
     <g id="text_16">
      <!-- $\mathdefault{0.030}$ -->
      <g transform="translate(377.812716 175.977725) scale(0.15 -0.15)">
       <use xlink:href="#CMR17-30" transform="scale(0.996264)"/>
       <use xlink:href="#CMMI12-3a" transform="translate(45.690477 0) scale(0.996264)"/>
       <use xlink:href="#CMR17-30" transform="translate(72.787654 0) scale(0.996264)"/>
       <use xlink:href="#CMR17-33" transform="translate(118.478131 0) scale(0.996264)"/>
       <use xlink:href="#CMR17-30" transform="translate(164.168608 0) scale(0.996264)"/>
      </g>
     </g>
    </g>
    <g id="ytick_10">
     <g id="line2d_15">
      <g>
       <use xlink:href="#m5b4c7c20cc" x="370.812716" y="139.108862" style="stroke: #000000; stroke-width: 0.8"/>
      </g>
     </g>
     <g id="text_17">
      <!-- $\mathdefault{0.045}$ -->
      <g transform="translate(377.812716 144.297725) scale(0.15 -0.15)">
       <use xlink:href="#CMR17-30" transform="scale(0.996264)"/>
       <use xlink:href="#CMMI12-3a" transform="translate(45.690477 0) scale(0.996264)"/>
       <use xlink:href="#CMR17-30" transform="translate(72.787654 0) scale(0.996264)"/>
       <use xlink:href="#CMR17-34" transform="translate(118.478131 0) scale(0.996264)"/>
       <use xlink:href="#CMR17-35" transform="translate(164.168608 0) scale(0.996264)"/>
      </g>
     </g>
    </g>
    <g id="ytick_11">
     <g id="line2d_16">
      <g>
       <use xlink:href="#m5b4c7c20cc" x="370.812716" y="107.428862" style="stroke: #000000; stroke-width: 0.8"/>
      </g>
     </g>
     <g id="text_18">
      <!-- $\mathdefault{0.060}$ -->
      <g transform="translate(377.812716 112.617725) scale(0.15 -0.15)">
       <defs>
        <path id="CMR17-36" d="M 678 2176 
C 678 3690 1395 4032 1811 4032 
C 1946 4032 2272 4009 2400 3776 
C 2298 3776 2106 3776 2106 3553 
C 2106 3381 2246 3323 2336 3323 
C 2394 3323 2566 3348 2566 3560 
C 2566 3954 2246 4179 1805 4179 
C 1043 4179 243 3390 243 1984 
C 243 253 966 -128 1478 -128 
C 2099 -128 2688 427 2688 1283 
C 2688 2081 2170 2662 1517 2662 
C 1126 2662 838 2407 678 1960 
L 678 2176 
z
M 1478 25 
C 691 25 691 1200 691 1436 
C 691 1896 909 2560 1504 2560 
C 1613 2560 1926 2560 2138 2120 
C 2253 1870 2253 1609 2253 1289 
C 2253 944 2253 690 2118 434 
C 1978 171 1773 25 1478 25 
z
" transform="scale(0.015625)"/>
       </defs>
       <use xlink:href="#CMR17-30" transform="scale(0.996264)"/>
       <use xlink:href="#CMMI12-3a" transform="translate(45.690477 0) scale(0.996264)"/>
       <use xlink:href="#CMR17-30" transform="translate(72.787654 0) scale(0.996264)"/>
       <use xlink:href="#CMR17-36" transform="translate(118.478131 0) scale(0.996264)"/>
       <use xlink:href="#CMR17-30" transform="translate(164.168608 0) scale(0.996264)"/>
      </g>
     </g>
    </g>
    <g id="ytick_12">
     <g id="line2d_17">
      <g>
       <use xlink:href="#m5b4c7c20cc" x="370.812716" y="75.748862" style="stroke: #000000; stroke-width: 0.8"/>
      </g>
     </g>
     <g id="text_19">
      <!-- $\mathdefault{0.075}$ -->
      <g transform="translate(377.812716 80.937725) scale(0.15 -0.15)">
       <use xlink:href="#CMR17-30" transform="scale(0.996264)"/>
       <use xlink:href="#CMMI12-3a" transform="translate(45.690477 0) scale(0.996264)"/>
       <use xlink:href="#CMR17-30" transform="translate(72.787654 0) scale(0.996264)"/>
       <use xlink:href="#CMR17-37" transform="translate(118.478131 0) scale(0.996264)"/>
       <use xlink:href="#CMR17-35" transform="translate(164.168608 0) scale(0.996264)"/>
      </g>
     </g>
    </g>
    <g id="ytick_13">
     <g id="line2d_18">
      <g>
       <use xlink:href="#m5b4c7c20cc" x="370.812716" y="44.068862" style="stroke: #000000; stroke-width: 0.8"/>
      </g>
     </g>
     <g id="text_20">
      <!-- $\mathdefault{0.090}$ -->
      <g transform="translate(377.812716 49.257725) scale(0.15 -0.15)">
       <defs>
        <path id="CMR17-39" d="M 2253 1864 
C 2253 464 1670 31 1190 31 
C 1043 31 685 31 538 294 
C 704 268 826 357 826 518 
C 826 692 685 749 595 749 
C 538 749 365 723 365 506 
C 365 71 742 -128 1203 -128 
C 1939 -128 2688 674 2688 2073 
C 2688 3817 1971 4179 1485 4179 
C 851 4179 243 3628 243 2778 
C 243 1991 762 1408 1414 1408 
C 1952 1408 2189 1903 2253 2112 
L 2253 1864 
z
M 1427 1510 
C 1254 1510 1011 1542 813 1922 
C 678 2169 678 2461 678 2771 
C 678 3146 678 3405 858 3684 
C 947 3817 1114 4032 1485 4032 
C 2240 4032 2240 2885 2240 2632 
C 2240 2182 2035 1510 1427 1510 
z
" transform="scale(0.015625)"/>
       </defs>
       <use xlink:href="#CMR17-30" transform="scale(0.996264)"/>
       <use xlink:href="#CMMI12-3a" transform="translate(45.690477 0) scale(0.996264)"/>
       <use xlink:href="#CMR17-30" transform="translate(72.787654 0) scale(0.996264)"/>
       <use xlink:href="#CMR17-39" transform="translate(118.478131 0) scale(0.996264)"/>
       <use xlink:href="#CMR17-30" transform="translate(164.168608 0) scale(0.996264)"/>
      </g>
     </g>
    </g>
    <g id="ytick_14">
     <g id="line2d_19">
      <g>
       <use xlink:href="#m5b4c7c20cc" x="370.812716" y="12.388862" style="stroke: #000000; stroke-width: 0.8"/>
      </g>
     </g>
     <g id="text_21">
      <!-- $\mathdefault{0.105}$ -->
      <g transform="translate(377.812716 17.577725) scale(0.15 -0.15)">
       <use xlink:href="#CMR17-30" transform="scale(0.996264)"/>
       <use xlink:href="#CMMI12-3a" transform="translate(45.690477 0) scale(0.996264)"/>
       <use xlink:href="#CMR17-31" transform="translate(72.787654 0) scale(0.996264)"/>
       <use xlink:href="#CMR17-30" transform="translate(118.478131 0) scale(0.996264)"/>
       <use xlink:href="#CMR17-35" transform="translate(164.168608 0) scale(0.996264)"/>
      </g>
     </g>
    </g>
    <g id="text_22">
     <!-- $\gamma/\Omega$ -->
     <g transform="translate(426.350214 136.412323) rotate(-90) scale(0.15 -0.15)">
      <defs>
       <path id="CMMI12-d" d="M 2419 760 
C 2406 1071 2394 1561 2150 2133 
C 2022 2452 1805 2788 1338 2788 
C 550 2788 122 1790 122 1625 
C 122 1567 166 1567 186 1567 
C 243 1567 243 1580 275 1663 
C 410 2057 819 2368 1261 2368 
C 2150 2368 2278 1383 2278 754 
C 2278 352 2234 220 2195 92 
C 2074 -302 1862 -1090 1862 -1268 
C 1862 -1319 1882 -1376 1933 -1376 
C 2029 -1376 2086 -1166 2157 -912 
C 2310 -353 2349 -73 2381 181 
C 2400 334 2765 1384 3270 2382 
C 3315 2483 3405 2655 3405 2674 
C 3405 2680 3398 2725 3341 2725 
C 3328 2725 3296 2725 3283 2699 
C 3270 2687 3046 2254 2854 1822 
C 2758 1606 2630 1320 2419 760 
z
" transform="scale(0.015625)"/>
      </defs>
      <use xlink:href="#CMMI12-d" transform="scale(0.996264)"/>
      <use xlink:href="#CMMI12-3d" transform="translate(56.018568 0) scale(0.996264)"/>
      <use xlink:href="#CMR17-a" transform="translate(104.793487 0) scale(0.996264)"/>
     </g>
    </g>
   </g>
   <g id="LineCollection_1"/>
   <g id="patch_8">
    <path d="M 359.724716 234.148862 
L 365.268716 234.148862 
L 370.812716 234.148862 
L 370.812716 12.388862 
L 365.268716 12.388862 
L 359.724716 12.388862 
L 359.724716 234.148862 
z
" style="fill: none; stroke: #000000; stroke-width: 0.8; stroke-linejoin: miter; stroke-linecap: square"/>
   </g>
  </g>
 </g>
 <defs>
  <clipPath id="pd4be22b4e7">
   <rect x="52.757756" y="12.388862" width="288.91008" height="221.76"/>
  </clipPath>
  <clipPath id="p86c1db88e1">
   <rect x="359.724716" y="12.388862" width="11.088" height="221.76"/>
  </clipPath>
 </defs>
</svg>
