<?xml version="1.0" encoding="utf-8" standalone="no"?>
<!DOCTYPE svg PUBLIC "-//W3C//DTD SVG 1.1//EN"
  "http://www.w3.org/Graphics/SVG/1.1/DTD/svg11.dtd">
<svg xmlns:xlink="http://www.w3.org/1999/xlink" width="418.589152pt" height="285.557612pt" viewBox="0 0 418.589152 285.557612" xmlns="http://www.w3.org/2000/svg" version="1.1">
 <metadata>
  <rdf:RDF xmlns:dc="http://purl.org/dc/elements/1.1/" xmlns:cc="http://creativecommons.org/ns#" xmlns:rdf="http://www.w3.org/1999/02/22-rdf-syntax-ns#">
   <cc:Work>
    <dc:type rdf:resource="http://purl.org/dc/dcmitype/StillImage"/>
    <dc:date>2024-11-05T16:44:05.488673</dc:date>
    <dc:format>image/svg+xml</dc:format>
    <dc:creator>
     <cc:Agent>
      <dc:title>Matplotlib v3.5.2, https://matplotlib.org/</dc:title>
     </cc:Agent>
    </dc:creator>
   </cc:Work>
  </rdf:RDF>
 </metadata>
 <defs>
  <style type="text/css">*{stroke-linejoin: round; stroke-linecap: butt}</style>
 </defs>
 <g id="figure_1">
  <g id="patch_1">
   <path d="M 0 285.557612 
L 418.589152 285.557612 
L 418.589152 -0 
L 0 -0 
z
" style="fill: #ffffff"/>
  </g>
  <g id="axes_1">
   <g id="patch_2">
    <path d="M 52.757756 234.148862 
L 341.667836 234.148862 
L 341.667836 12.388862 
L 52.757756 12.388862 
z
" style="fill: #ffffff"/>
   </g>
   <g id="PathCollection_1">
    <path d="M 57.34363 234.148862 
L 61.929504 234.148862 
L 66.515379 234.148862 
L 71.101253 234.148862 
L 75.687127 234.148862 
L 80.273002 234.148862 
L 84.858876 234.148862 
L 89.44475 234.148862 
L 94.030624 234.148862 
L 98.616499 234.148862 
L 103.202373 234.148862 
L 107.788247 234.148862 
L 112.374122 234.148862 
L 116.959996 234.148862 
L 121.54587 234.148862 
L 126.131744 234.148862 
L 130.717619 234.148862 
L 135.303493 234.148862 
L 139.889367 234.148862 
L 144.475242 234.148862 
L 149.061116 234.148862 
L 153.64699 234.148862 
L 158.232864 234.148862 
L 162.818739 234.148862 
L 167.404613 234.148862 
L 171.990487 234.148862 
L 176.576362 234.148862 
L 181.162236 234.148862 
L 185.74811 234.148862 
L 190.333984 234.148862 
L 194.919859 234.148862 
L 199.505733 234.148862 
L 204.091607 234.148862 
L 208.677482 234.148862 
L 213.263356 234.148862 
L 217.84923 234.148862 
L 222.435104 234.148862 
L 227.020979 234.148862 
L 231.606853 234.148862 
L 236.192727 234.148862 
L 240.778602 234.148862 
L 245.364476 234.148862 
L 249.95035 234.148862 
L 254.536224 234.148862 
L 259.122099 234.148862 
L 263.707973 234.148862 
L 268.293847 234.148862 
L 272.879722 234.148862 
L 277.465596 234.148862 
L 282.05147 234.148862 
L 286.637344 234.148862 
L 291.223219 234.148862 
L 295.809093 234.148862 
L 300.394967 234.148862 
L 304.980842 234.148862 
L 309.566716 234.148862 
L 314.15259 234.148862 
L 316.069652 234.148862 
L 318.738464 225.055719 
L 323.324339 217.206358 
L 327.910213 214.409596 
L 332.496087 215.549675 
L 337.081962 226.874683 
L 338.412514 234.148862 
L 341.667836 234.148862 
L 341.667836 189.796862 
L 341.667836 145.444862 
L 341.667836 101.092862 
L 341.667836 56.740862 
L 341.667836 12.388862 
L 337.081962 12.388862 
L 332.496087 12.388862 
L 327.910213 12.388862 
L 323.324339 12.388862 
L 318.738464 12.388862 
L 314.15259 12.388862 
L 309.566716 12.388862 
L 304.980842 12.388862 
L 300.394967 12.388862 
L 295.809093 12.388862 
L 291.223219 12.388862 
L 286.637344 12.388862 
L 282.05147 12.388862 
L 277.465596 12.388862 
L 272.879722 12.388862 
L 268.293847 12.388862 
L 263.707973 12.388862 
L 259.122099 12.388862 
L 254.536224 12.388862 
L 249.95035 12.388862 
L 245.364476 12.388862 
L 240.778602 12.388862 
L 236.192727 12.388862 
L 231.606853 12.388862 
L 227.020979 12.388862 
L 222.435104 12.388862 
L 217.84923 12.388862 
L 213.263356 12.388862 
L 208.677482 12.388862 
L 204.091607 12.388862 
L 199.505733 12.388862 
L 194.919859 12.388862 
L 190.333984 12.388862 
L 185.74811 12.388862 
L 181.162236 12.388862 
L 178.837368 12.388862 
L 176.576362 34.91295 
L 173.821249 12.388862 
L 171.990487 12.388862 
L 167.404613 12.388862 
L 162.818739 12.388862 
L 160.752022 12.388862 
L 159.526277 56.740862 
L 158.232864 71.824068 
L 154.344047 101.092862 
L 153.64699 107.925008 
L 153.436512 101.092862 
L 153.345284 56.740862 
L 152.281649 12.388862 
L 149.061116 12.388862 
L 144.475242 12.388862 
L 139.889367 12.388862 
L 135.303493 12.388862 
L 130.717619 12.388862 
L 126.131744 12.388862 
L 121.54587 12.388862 
L 116.959996 12.388862 
L 112.374122 12.388862 
L 107.788247 12.388862 
L 103.202373 12.388862 
L 98.616499 12.388862 
L 94.030624 12.388862 
L 89.44475 12.388862 
L 84.858876 12.388862 
L 80.273002 12.388862 
L 75.687127 12.388862 
L 71.101253 12.388862 
L 66.515379 12.388862 
L 61.929504 12.388862 
L 57.34363 12.388862 
L 56.641961 12.388862 
L 56.648216 56.740862 
L 56.641005 101.092862 
L 56.64091 145.444862 
L 56.637417 189.796862 
L 56.637217 234.148862 
z
" clip-path="url(#p156cc666fd)" style="fill: #3a049a"/>
   </g>
   <g id="PathCollection_2">
    <path d="M 56.637417 189.796862 
L 56.64091 145.444862 
L 56.641005 101.092862 
L 56.648216 56.740862 
L 56.641961 12.388862 
L 55.907408 12.388862 
L 55.920523 56.740862 
L 55.905406 101.092862 
L 55.905207 145.444862 
L 55.897843 189.796862 
L 55.897469 234.148862 
L 56.637217 234.148862 
z
" clip-path="url(#p156cc666fd)" style="fill: #7e03a8"/>
    <path d="M 318.738464 234.148862 
L 323.324339 234.148862 
L 327.910213 234.148862 
L 332.496087 234.148862 
L 337.081962 234.148862 
L 338.412514 234.148862 
L 337.081962 226.874683 
L 332.496087 215.549675 
L 327.910213 214.409596 
L 323.324339 217.206358 
L 318.738464 225.055719 
L 316.069652 234.148862 
z
" clip-path="url(#p156cc666fd)" style="fill: #7e03a8"/>
    <path d="M 153.64699 107.925008 
L 154.344047 101.092862 
L 158.232864 71.824068 
L 159.526277 56.740862 
L 160.752022 12.388862 
L 158.232864 12.388862 
L 153.64699 12.388862 
L 152.281649 12.388862 
L 153.345284 56.740862 
L 153.436512 101.092862 
z
" clip-path="url(#p156cc666fd)" style="fill: #7e03a8"/>
    <path d="M 176.576362 34.91295 
L 178.837368 12.388862 
L 176.576362 12.388862 
L 173.821249 12.388862 
z
" clip-path="url(#p156cc666fd)" style="fill: #7e03a8"/>
   </g>
   <g id="PathCollection_3">
    <path d="M 55.897843 189.796862 
L 55.905207 145.444862 
L 55.905406 101.092862 
L 55.920523 56.740862 
L 55.907408 12.388862 
L 55.136755 12.388862 
L 55.157418 56.740862 
L 55.133601 101.092862 
L 55.133288 145.444862 
L 55.121661 189.796862 
L 55.121095 234.148862 
L 55.897469 234.148862 
z
" clip-path="url(#p156cc666fd)" style="fill: #b52f8c"/>
   </g>
   <g id="PathCollection_4">
    <path d="M 55.121661 189.796862 
L 55.133288 145.444862 
L 55.133601 101.092862 
L 55.157418 56.740862 
L 55.136755 12.388862 
L 54.32627 12.388862 
L 54.355277 56.740862 
L 54.321841 101.092862 
L 54.321401 145.444862 
L 54.305058 189.796862 
L 54.30428 234.148862 
L 55.121095 234.148862 
z
" clip-path="url(#p156cc666fd)" style="fill: #de5f65"/>
   </g>
   <g id="PathCollection_5">
    <path d="M 54.305058 189.796862 
L 54.321401 145.444862 
L 54.321841 101.092862 
L 54.355277 56.740862 
L 54.32627 12.388862 
L 53.471609 12.388862 
L 53.509889 56.740862 
L 53.465763 101.092862 
L 53.465182 145.444862 
L 53.443592 189.796862 
L 53.442577 234.148862 
L 54.30428 234.148862 
z
" clip-path="url(#p156cc666fd)" style="fill: #f89540"/>
   </g>
   <g id="PathCollection_6">
    <path d="M 53.443592 189.796862 
L 53.465182 145.444862 
L 53.465763 101.092862 
L 53.509889 56.740862 
L 53.471609 12.388862 
L 52.757756 12.388862 
L 52.757756 56.740862 
L 52.757756 101.092862 
L 52.757756 145.444862 
L 52.757756 189.796862 
L 52.757756 234.148862 
L 53.442577 234.148862 
z
" clip-path="url(#p156cc666fd)" style="fill: #fbd524"/>
   </g>
   <g id="matplotlib.axis_1">
    <g id="xtick_1">
     <g id="line2d_1">
      <defs>
       <path id="m97b7931c28" d="M 0 0 
L 0 3.5 
" style="stroke: #000000; stroke-width: 0.8"/>
      </defs>
      <g>
       <use xlink:href="#m97b7931c28" x="52.757756" y="234.148862" style="stroke: #000000; stroke-width: 0.8"/>
      </g>
     </g>
     <g id="text_1">
      <!-- $\mathdefault{10^{-4}}$ -->
      <g transform="translate(38.75826 251.526587)scale(0.15 -0.15)">
       <defs>
        <path id="CMR17-31" d="M 1702 4083 
C 1702 4217 1696 4224 1606 4224 
C 1357 3927 979 3833 621 3820 
C 602 3820 570 3820 563 3808 
C 557 3795 557 3782 557 3648 
C 755 3648 1088 3686 1344 3839 
L 1344 467 
C 1344 243 1331 166 781 166 
L 589 166 
L 589 0 
C 896 6 1216 12 1523 12 
C 1830 12 2150 6 2458 0 
L 2458 166 
L 2266 166 
C 1715 166 1702 236 1702 467 
L 1702 4083 
z
" transform="scale(0.015625)"/>
        <path id="CMR17-30" d="M 2688 2038 
C 2688 2430 2682 3099 2413 3613 
C 2176 4063 1798 4224 1466 4224 
C 1158 4224 768 4082 525 3620 
C 269 3137 243 2539 243 2038 
C 243 1671 250 1112 448 623 
C 723 -39 1216 -128 1466 -128 
C 1760 -128 2208 -7 2470 604 
C 2662 1048 2688 1568 2688 2038 
z
M 1466 -26 
C 1056 -26 813 328 723 816 
C 653 1196 653 1749 653 2109 
C 653 2604 653 3015 736 3407 
C 858 3954 1216 4121 1466 4121 
C 1728 4121 2067 3947 2189 3420 
C 2272 3054 2278 2623 2278 2109 
C 2278 1691 2278 1176 2202 797 
C 2067 96 1690 -26 1466 -26 
z
" transform="scale(0.015625)"/>
        <path id="CMSY10-0" d="M 4218 1472 
C 4326 1472 4442 1472 4442 1600 
C 4442 1728 4326 1728 4218 1728 
L 755 1728 
C 646 1728 531 1728 531 1600 
C 531 1472 646 1472 755 1472 
L 4218 1472 
z
" transform="scale(0.015625)"/>
        <path id="CMR17-34" d="M 2150 4147 
C 2150 4281 2144 4288 2029 4288 
L 128 1254 
L 128 1088 
L 1779 1088 
L 1779 460 
C 1779 230 1766 166 1318 166 
L 1197 166 
L 1197 0 
C 1402 12 1747 12 1965 12 
C 2182 12 2528 12 2733 0 
L 2733 166 
L 2611 166 
C 2163 166 2150 230 2150 460 
L 2150 1088 
L 2803 1088 
L 2803 1254 
L 2150 1254 
L 2150 4147 
z
M 1798 3723 
L 1798 1254 
L 256 1254 
L 1798 3723 
z
" transform="scale(0.015625)"/>
       </defs>
       <use xlink:href="#CMR17-31" transform="scale(0.996264)"/>
       <use xlink:href="#CMR17-30" transform="translate(45.690477 0)scale(0.996264)"/>
       <use xlink:href="#CMSY10-0" transform="translate(91.380954 36.153639)scale(0.697382)"/>
       <use xlink:href="#CMR17-34" transform="translate(145.621947 36.153639)scale(0.697382)"/>
      </g>
     </g>
    </g>
    <g id="xtick_2">
     <g id="line2d_2">
      <g>
       <use xlink:href="#m97b7931c28" x="124.985276" y="234.148862" style="stroke: #000000; stroke-width: 0.8"/>
      </g>
     </g>
     <g id="text_2">
      <!-- $\mathdefault{10^{-2}}$ -->
      <g transform="translate(110.98578 251.526587)scale(0.15 -0.15)">
       <defs>
        <path id="CMR17-32" d="M 2669 990 
L 2554 990 
C 2490 537 2438 460 2413 422 
C 2381 371 1920 371 1830 371 
L 602 371 
C 832 620 1280 1073 1824 1596 
C 2214 1966 2669 2400 2669 3033 
C 2669 3788 2067 4224 1395 4224 
C 691 4224 262 3603 262 3027 
C 262 2777 448 2745 525 2745 
C 589 2745 781 2783 781 3007 
C 781 3206 614 3264 525 3264 
C 486 3264 448 3257 422 3244 
C 544 3788 915 4057 1306 4057 
C 1862 4057 2227 3616 2227 3033 
C 2227 2477 1901 1998 1536 1583 
L 262 147 
L 262 0 
L 2515 0 
L 2669 990 
z
" transform="scale(0.015625)"/>
       </defs>
       <use xlink:href="#CMR17-31" transform="scale(0.996264)"/>
       <use xlink:href="#CMR17-30" transform="translate(45.690477 0)scale(0.996264)"/>
       <use xlink:href="#CMSY10-0" transform="translate(91.380954 36.153639)scale(0.697382)"/>
       <use xlink:href="#CMR17-32" transform="translate(145.621947 36.153639)scale(0.697382)"/>
      </g>
     </g>
    </g>
    <g id="xtick_3">
     <g id="line2d_3">
      <g>
       <use xlink:href="#m97b7931c28" x="197.212796" y="234.148862" style="stroke: #000000; stroke-width: 0.8"/>
      </g>
     </g>
     <g id="text_3">
      <!-- $\mathdefault{10^{0}}$ -->
      <g transform="translate(187.281373 251.526587)scale(0.15 -0.15)">
       <use xlink:href="#CMR17-31" transform="scale(0.996264)"/>
       <use xlink:href="#CMR17-30" transform="translate(45.690477 0)scale(0.996264)"/>
       <use xlink:href="#CMR17-30" transform="translate(91.380954 36.153639)scale(0.697382)"/>
      </g>
     </g>
    </g>
    <g id="xtick_4">
     <g id="line2d_4">
      <g>
       <use xlink:href="#m97b7931c28" x="269.440316" y="234.148862" style="stroke: #000000; stroke-width: 0.8"/>
      </g>
     </g>
     <g id="text_4">
      <!-- $\mathdefault{10^{2}}$ -->
      <g transform="translate(259.508893 251.526587)scale(0.15 -0.15)">
       <use xlink:href="#CMR17-31" transform="scale(0.996264)"/>
       <use xlink:href="#CMR17-30" transform="translate(45.690477 0)scale(0.996264)"/>
       <use xlink:href="#CMR17-32" transform="translate(91.380954 36.153639)scale(0.697382)"/>
      </g>
     </g>
    </g>
    <g id="xtick_5">
     <g id="line2d_5">
      <g>
       <use xlink:href="#m97b7931c28" x="341.667836" y="234.148862" style="stroke: #000000; stroke-width: 0.8"/>
      </g>
     </g>
     <g id="text_5">
      <!-- $\mathdefault{10^{4}}$ -->
      <g transform="translate(331.736413 251.526587)scale(0.15 -0.15)">
       <use xlink:href="#CMR17-31" transform="scale(0.996264)"/>
       <use xlink:href="#CMR17-30" transform="translate(45.690477 0)scale(0.996264)"/>
       <use xlink:href="#CMR17-34" transform="translate(91.380954 36.153639)scale(0.697382)"/>
      </g>
     </g>
    </g>
    <g id="text_6">
     <!-- $\tau/s$ -->
     <g transform="translate(182.391187 273.376292)scale(0.2 -0.2)">
      <defs>
       <path id="CMMI12-1c" d="M 1837 2406 
L 2899 2406 
C 2982 2406 3194 2406 3194 2611 
C 3194 2752 3072 2752 2957 2752 
L 1197 2752 
C 1050 2752 832 2752 538 2438 
C 371 2253 166 1916 166 1878 
C 166 1839 198 1827 237 1827 
C 282 1827 288 1846 320 1884 
C 653 2406 986 2406 1146 2406 
L 1677 2406 
L 1011 223 
C 979 127 979 114 979 95 
C 979 25 1024 -64 1152 -64 
C 1350 -64 1382 108 1402 204 
L 1837 2406 
z
" transform="scale(0.015625)"/>
       <path id="CMMI12-3d" d="M 2746 4563 
C 2746 4569 2784 4665 2784 4678 
C 2784 4755 2720 4800 2669 4800 
C 2637 4800 2579 4800 2528 4659 
L 384 -1364 
C 384 -1370 346 -1466 346 -1479 
C 346 -1556 410 -1600 461 -1600 
C 499 -1600 557 -1594 602 -1460 
L 2746 4563 
z
" transform="scale(0.015625)"/>
       <path id="CMMI12-73" d="M 1459 1290 
C 1568 1271 1741 1233 1779 1227 
C 1862 1201 2150 1099 2150 793 
C 2150 595 1971 64 1229 64 
C 1094 64 614 83 486 447 
C 742 414 870 614 870 755 
C 870 889 781 960 653 960 
C 512 960 326 851 326 563 
C 326 176 710 -64 1222 -64 
C 2195 -64 2483 665 2483 998 
C 2483 1093 2483 1271 2278 1475 
C 2118 1627 1965 1659 1619 1729 
C 1446 1767 1171 1824 1171 2111 
C 1171 2239 1286 2687 1894 2687 
C 2163 2687 2426 2589 2490 2368 
C 2208 2368 2195 2124 2195 2118 
C 2195 1983 2317 1945 2374 1945 
C 2464 1945 2643 2015 2643 2284 
C 2643 2546 2400 2816 1901 2816 
C 1062 2816 838 2169 838 1907 
C 838 1424 1312 1322 1459 1290 
z
" transform="scale(0.015625)"/>
      </defs>
      <use xlink:href="#CMMI12-1c" transform="scale(0.996264)"/>
      <use xlink:href="#CMMI12-3d" transform="translate(53.491165 0)scale(0.996264)"/>
      <use xlink:href="#CMMI12-73" transform="translate(102.266084 0)scale(0.996264)"/>
     </g>
    </g>
   </g>
   <g id="matplotlib.axis_2">
    <g id="ytick_1">
     <g id="line2d_6">
      <defs>
       <path id="m2f1dc33ae7" d="M 0 0 
L -3.5 0 
" style="stroke: #000000; stroke-width: 0.8"/>
      </defs>
      <g>
       <use xlink:href="#m2f1dc33ae7" x="52.757756" y="234.148862" style="stroke: #000000; stroke-width: 0.8"/>
      </g>
     </g>
     <g id="text_7">
      <!-- $\mathdefault{5}$ -->
      <g transform="translate(38.441518 239.337725)scale(0.15 -0.15)">
       <defs>
        <path id="CMR17-35" d="M 730 3750 
C 794 3724 1056 3641 1325 3641 
C 1920 3641 2246 3961 2432 4140 
C 2432 4191 2432 4224 2394 4224 
C 2387 4224 2374 4224 2323 4198 
C 2099 4102 1837 4032 1517 4032 
C 1325 4032 1037 4055 723 4191 
C 653 4224 640 4224 634 4224 
C 602 4224 595 4217 595 4090 
L 595 2231 
C 595 2113 595 2080 659 2080 
C 691 2080 704 2093 736 2139 
C 941 2435 1222 2560 1542 2560 
C 1766 2560 2246 2415 2246 1293 
C 2246 1087 2246 716 2054 422 
C 1894 159 1645 25 1370 25 
C 947 25 518 319 403 812 
C 429 806 480 793 506 793 
C 589 793 749 838 749 1036 
C 749 1209 627 1280 506 1280 
C 358 1280 262 1190 262 1011 
C 262 454 704 -128 1382 -128 
C 2042 -128 2669 441 2669 1267 
C 2669 2054 2170 2662 1549 2662 
C 1222 2662 947 2540 730 2304 
L 730 3750 
z
" transform="scale(0.015625)"/>
       </defs>
       <use xlink:href="#CMR17-35" transform="scale(0.996264)"/>
      </g>
     </g>
    </g>
    <g id="ytick_2">
     <g id="line2d_7">
      <g>
       <use xlink:href="#m2f1dc33ae7" x="52.757756" y="189.796862" style="stroke: #000000; stroke-width: 0.8"/>
      </g>
     </g>
     <g id="text_8">
      <!-- $\mathdefault{15}$ -->
      <g transform="translate(31.12528 194.985725)scale(0.15 -0.15)">
       <use xlink:href="#CMR17-31" transform="scale(0.996264)"/>
       <use xlink:href="#CMR17-35" transform="translate(45.690477 0)scale(0.996264)"/>
      </g>
     </g>
    </g>
    <g id="ytick_3">
     <g id="line2d_8">
      <g>
       <use xlink:href="#m2f1dc33ae7" x="52.757756" y="145.444862" style="stroke: #000000; stroke-width: 0.8"/>
      </g>
     </g>
     <g id="text_9">
      <!-- $\mathdefault{25}$ -->
      <g transform="translate(31.12528 150.633725)scale(0.15 -0.15)">
       <use xlink:href="#CMR17-32" transform="scale(0.996264)"/>
       <use xlink:href="#CMR17-35" transform="translate(45.690477 0)scale(0.996264)"/>
      </g>
     </g>
    </g>
    <g id="ytick_4">
     <g id="line2d_9">
      <g>
       <use xlink:href="#m2f1dc33ae7" x="52.757756" y="101.092862" style="stroke: #000000; stroke-width: 0.8"/>
      </g>
     </g>
     <g id="text_10">
      <!-- $\mathdefault{35}$ -->
      <g transform="translate(31.12528 106.281725)scale(0.15 -0.15)">
       <defs>
        <path id="CMR17-33" d="M 1414 2176 
C 1984 2176 2234 1673 2234 1094 
C 2234 322 1824 25 1453 25 
C 1114 25 563 193 390 691 
C 422 678 454 678 486 678 
C 640 678 755 780 755 947 
C 755 1132 614 1216 486 1216 
C 378 1216 211 1164 211 927 
C 211 335 787 -128 1466 -128 
C 2176 -128 2720 432 2720 1087 
C 2720 1718 2208 2176 1600 2246 
C 2086 2347 2554 2776 2554 3353 
C 2554 3856 2048 4224 1472 4224 
C 890 4224 378 3862 378 3347 
C 378 3123 544 3084 627 3084 
C 762 3084 877 3167 877 3334 
C 877 3500 762 3584 627 3584 
C 602 3584 570 3584 544 3571 
C 730 3999 1235 4076 1459 4076 
C 1683 4076 2106 3966 2106 3347 
C 2106 3167 2080 2851 1862 2574 
C 1670 2329 1453 2316 1242 2297 
C 1210 2297 1062 2284 1037 2284 
C 992 2278 966 2272 966 2227 
C 966 2182 973 2176 1101 2176 
L 1414 2176 
z
" transform="scale(0.015625)"/>
       </defs>
       <use xlink:href="#CMR17-33" transform="scale(0.996264)"/>
       <use xlink:href="#CMR17-35" transform="translate(45.690477 0)scale(0.996264)"/>
      </g>
     </g>
    </g>
    <g id="ytick_5">
     <g id="line2d_10">
      <g>
       <use xlink:href="#m2f1dc33ae7" x="52.757756" y="56.740862" style="stroke: #000000; stroke-width: 0.8"/>
      </g>
     </g>
     <g id="text_11">
      <!-- $\mathdefault{45}$ -->
      <g transform="translate(31.12528 61.929725)scale(0.15 -0.15)">
       <use xlink:href="#CMR17-34" transform="scale(0.996264)"/>
       <use xlink:href="#CMR17-35" transform="translate(45.690477 0)scale(0.996264)"/>
      </g>
     </g>
    </g>
    <g id="ytick_6">
     <g id="line2d_11">
      <g>
       <use xlink:href="#m2f1dc33ae7" x="52.757756" y="12.388862" style="stroke: #000000; stroke-width: 0.8"/>
      </g>
     </g>
     <g id="text_12">
      <!-- $\mathdefault{55}$ -->
      <g transform="translate(31.12528 17.577725)scale(0.15 -0.15)">
       <use xlink:href="#CMR17-35" transform="scale(0.996264)"/>
       <use xlink:href="#CMR17-35" transform="translate(45.690477 0)scale(0.996264)"/>
      </g>
     </g>
    </g>
    <g id="text_13">
     <!-- $R_{\rm ct}/\Omega$ -->
     <g transform="translate(22.14396 148.161865)rotate(-90)scale(0.2 -0.2)">
      <defs>
       <path id="CMMI12-52" d="M 2355 3917 
C 2413 4153 2438 4166 2688 4166 
L 3149 4166 
C 3699 4166 4109 4000 4109 3503 
C 4109 3177 3942 2240 2656 2240 
L 1933 2240 
L 2355 3917 
z
M 3245 2163 
C 4038 2335 4659 2846 4659 3394 
C 4659 3892 4154 4352 3264 4352 
L 1530 4352 
C 1402 4352 1344 4352 1344 4230 
C 1344 4166 1389 4166 1510 4166 
C 1894 4166 1894 4115 1894 4045 
C 1894 4032 1894 3994 1869 3898 
L 1005 475 
C 947 253 934 190 493 190 
C 346 190 301 190 301 69 
C 301 6 371 6 390 6 
C 506 6 640 19 762 19 
L 1517 19 
C 1632 19 1766 6 1882 6 
C 1933 6 2003 6 2003 126 
C 2003 190 1946 190 1850 190 
C 1459 190 1459 241 1459 304 
C 1459 310 1459 355 1472 405 
L 1901 2112 
L 2669 2112 
C 3277 2112 3392 1731 3392 1522 
C 3392 1426 3328 1179 3283 1014 
C 3213 723 3194 653 3194 532 
C 3194 82 3565 -128 3994 -128 
C 4512 -128 4736 501 4736 589 
C 4736 634 4704 653 4666 653 
C 4614 653 4602 615 4589 564 
C 4435 114 4173 0 4013 0 
C 3853 0 3750 69 3750 355 
C 3750 507 3827 1084 3834 1116 
C 3866 1350 3866 1376 3866 1426 
C 3866 1889 3488 2086 3245 2163 
z
" transform="scale(0.015625)"/>
       <path id="CMR17-63" d="M 2234 2240 
C 2112 2240 1933 2240 1933 2015 
C 1933 1836 2080 1785 2163 1785 
C 2208 1785 2394 1804 2394 2028 
C 2394 2476 1958 2816 1466 2816 
C 787 2816 211 2201 211 1379 
C 211 521 813 -64 1466 -64 
C 2259 -64 2458 676 2458 747 
C 2458 773 2451 792 2406 792 
C 2362 792 2355 786 2330 702 
C 2163 180 1798 51 1523 51 
C 1114 51 621 431 621 1385 
C 621 2358 1094 2700 1472 2700 
C 1722 2700 2093 2582 2234 2240 
z
" transform="scale(0.015625)"/>
       <path id="CMR17-74" d="M 966 2585 
L 1862 2585 
L 1862 2752 
L 966 2752 
L 966 3968 
L 851 3968 
C 838 3292 614 2700 70 2687 
L 70 2585 
L 627 2585 
L 627 778 
C 627 655 627 -64 1370 -64 
C 1747 -64 1965 308 1965 784 
L 1965 1151 
L 1850 1151 
L 1850 790 
C 1850 347 1677 51 1408 51 
C 1222 51 966 179 966 765 
L 966 2585 
z
" transform="scale(0.015625)"/>
       <path id="CMR17-a" d="M 4038 935 
L 3923 935 
C 3866 640 3846 563 3814 461 
C 3782 364 3763 313 3392 313 
L 2874 313 
C 2944 685 3098 961 3366 1390 
C 3699 1935 3974 2377 3974 2909 
C 3974 3775 3155 4480 2138 4480 
C 1094 4480 294 3768 294 2909 
C 294 2377 576 1922 890 1416 
C 1171 961 1325 685 1395 313 
L 877 313 
C 512 313 493 364 461 454 
C 422 557 410 640 346 935 
L 230 935 
L 416 0 
L 1382 0 
C 1517 0 1523 6 1523 102 
C 1523 557 1286 1153 1178 1428 
C 973 1928 781 2416 781 2916 
C 781 3871 1466 4377 2131 4377 
C 2829 4377 3488 3852 3488 2916 
C 3488 2422 3315 1980 3078 1396 
C 2976 1134 2746 550 2746 102 
C 2746 0 2752 0 2886 0 
L 3853 0 
L 4038 935 
z
" transform="scale(0.015625)"/>
      </defs>
      <use xlink:href="#CMMI12-52" transform="scale(0.996264)"/>
      <use xlink:href="#CMR17-63" transform="translate(74.250826 -14.943915)scale(0.697382)"/>
      <use xlink:href="#CMR17-74" transform="translate(102.590657 -14.943915)scale(0.697382)"/>
      <use xlink:href="#CMMI12-3d" transform="translate(127.78521 0)scale(0.996264)"/>
      <use xlink:href="#CMR17-a" transform="translate(176.560129 0)scale(0.996264)"/>
     </g>
    </g>
   </g>
   <g id="patch_3">
    <path d="M 52.757756 234.148862 
L 52.757756 12.388862 
" style="fill: none; stroke: #000000; stroke-width: 0.8; stroke-linejoin: miter; stroke-linecap: square"/>
   </g>
   <g id="patch_4">
    <path d="M 341.667836 234.148862 
L 341.667836 12.388862 
" style="fill: none; stroke: #000000; stroke-width: 0.8; stroke-linejoin: miter; stroke-linecap: square"/>
   </g>
   <g id="patch_5">
    <path d="M 52.757756 234.148862 
L 341.667836 234.148862 
" style="fill: none; stroke: #000000; stroke-width: 0.8; stroke-linejoin: miter; stroke-linecap: square"/>
   </g>
   <g id="patch_6">
    <path d="M 52.757756 12.388862 
L 341.667836 12.388862 
" style="fill: none; stroke: #000000; stroke-width: 0.8; stroke-linejoin: miter; stroke-linecap: square"/>
   </g>
  </g>
  <g id="axes_2">
   <g id="patch_7">
    <path d="M 359.724716 234.148862 
L 370.812716 234.148862 
L 370.812716 12.388862 
L 359.724716 12.388862 
z
" style="fill: #ffffff"/>
   </g>
   <g id="patch_8">
    <path clip-path="url(#p25a0487c17)" style="fill: #ffffff; stroke: #ffffff; stroke-width: 0.01; stroke-linejoin: miter"/>
   </g>
   <g id="QuadMesh_1">
    <path d="M 359.724716 234.148862 
L 370.812716 234.148862 
L 370.812716 197.188862 
L 359.724716 197.188862 
L 359.724716 234.148862 
" clip-path="url(#p25a0487c17)" style="fill: #3a049a"/>
    <path d="M 359.724716 197.188862 
L 370.812716 197.188862 
L 370.812716 160.228862 
L 359.724716 160.228862 
L 359.724716 197.188862 
" clip-path="url(#p25a0487c17)" style="fill: #7e03a8"/>
    <path d="M 359.724716 160.228862 
L 370.812716 160.228862 
L 370.812716 123.268862 
L 359.724716 123.268862 
L 359.724716 160.228862 
" clip-path="url(#p25a0487c17)" style="fill: #b52f8c"/>
    <path d="M 359.724716 123.268862 
L 370.812716 123.268862 
L 370.812716 86.308862 
L 359.724716 86.308862 
L 359.724716 123.268862 
" clip-path="url(#p25a0487c17)" style="fill: #de5f65"/>
    <path d="M 359.724716 86.308862 
L 370.812716 86.308862 
L 370.812716 49.348862 
L 359.724716 49.348862 
L 359.724716 86.308862 
" clip-path="url(#p25a0487c17)" style="fill: #f89540"/>
    <path d="M 359.724716 49.348862 
L 370.812716 49.348862 
L 370.812716 12.388862 
L 359.724716 12.388862 
L 359.724716 49.348862 
" clip-path="url(#p25a0487c17)" style="fill: #fbd524"/>
   </g>
   <g id="matplotlib.axis_3">
    <g id="ytick_7">
     <g id="line2d_12">
      <defs>
       <path id="mc2f19cdbd6" d="M 0 0 
L 3.5 0 
" style="stroke: #000000; stroke-width: 0.8"/>
      </defs>
      <g>
       <use xlink:href="#mc2f19cdbd6" x="370.812716" y="234.148862" style="stroke: #000000; stroke-width: 0.8"/>
      </g>
     </g>
     <g id="text_14">
      <!-- $\mathdefault{0}$ -->
      <g transform="translate(377.812716 239.337725)scale(0.15 -0.15)">
       <use xlink:href="#CMR17-30" transform="scale(0.996264)"/>
      </g>
     </g>
    </g>
    <g id="ytick_8">
     <g id="line2d_13">
      <g>
       <use xlink:href="#mc2f19cdbd6" x="370.812716" y="197.188862" style="stroke: #000000; stroke-width: 0.8"/>
      </g>
     </g>
     <g id="text_15">
      <!-- $\mathdefault{15}$ -->
      <g transform="translate(377.812716 202.377725)scale(0.15 -0.15)">
       <use xlink:href="#CMR17-31" transform="scale(0.996264)"/>
       <use xlink:href="#CMR17-35" transform="translate(45.690477 0)scale(0.996264)"/>
      </g>
     </g>
    </g>
    <g id="ytick_9">
     <g id="line2d_14">
      <g>
       <use xlink:href="#mc2f19cdbd6" x="370.812716" y="160.228862" style="stroke: #000000; stroke-width: 0.8"/>
      </g>
     </g>
     <g id="text_16">
      <!-- $\mathdefault{30}$ -->
      <g transform="translate(377.812716 165.417725)scale(0.15 -0.15)">
       <use xlink:href="#CMR17-33" transform="scale(0.996264)"/>
       <use xlink:href="#CMR17-30" transform="translate(45.690477 0)scale(0.996264)"/>
      </g>
     </g>
    </g>
    <g id="ytick_10">
     <g id="line2d_15">
      <g>
       <use xlink:href="#mc2f19cdbd6" x="370.812716" y="123.268862" style="stroke: #000000; stroke-width: 0.8"/>
      </g>
     </g>
     <g id="text_17">
      <!-- $\mathdefault{45}$ -->
      <g transform="translate(377.812716 128.457725)scale(0.15 -0.15)">
       <use xlink:href="#CMR17-34" transform="scale(0.996264)"/>
       <use xlink:href="#CMR17-35" transform="translate(45.690477 0)scale(0.996264)"/>
      </g>
     </g>
    </g>
    <g id="ytick_11">
     <g id="line2d_16">
      <g>
       <use xlink:href="#mc2f19cdbd6" x="370.812716" y="86.308862" style="stroke: #000000; stroke-width: 0.8"/>
      </g>
     </g>
     <g id="text_18">
      <!-- $\mathdefault{60}$ -->
      <g transform="translate(377.812716 91.497725)scale(0.15 -0.15)">
       <defs>
        <path id="CMR17-36" d="M 678 2198 
C 678 3712 1395 4076 1811 4076 
C 1946 4076 2272 4049 2400 3782 
C 2298 3782 2106 3782 2106 3558 
C 2106 3385 2246 3328 2336 3328 
C 2394 3328 2566 3353 2566 3571 
C 2566 3987 2246 4224 1805 4224 
C 1043 4224 243 3411 243 2011 
C 243 257 966 -128 1478 -128 
C 2099 -128 2688 431 2688 1295 
C 2688 2101 2170 2688 1517 2688 
C 1126 2688 838 2430 678 1979 
L 678 2198 
z
M 1478 25 
C 691 25 691 1212 691 1450 
C 691 1914 909 2585 1504 2585 
C 1613 2585 1926 2585 2138 2140 
C 2253 1889 2253 1624 2253 1302 
C 2253 954 2253 696 2118 438 
C 1978 173 1773 25 1478 25 
z
" transform="scale(0.015625)"/>
       </defs>
       <use xlink:href="#CMR17-36" transform="scale(0.996264)"/>
       <use xlink:href="#CMR17-30" transform="translate(45.690477 0)scale(0.996264)"/>
      </g>
     </g>
    </g>
    <g id="ytick_12">
     <g id="line2d_17">
      <g>
       <use xlink:href="#mc2f19cdbd6" x="370.812716" y="49.348862" style="stroke: #000000; stroke-width: 0.8"/>
      </g>
     </g>
     <g id="text_19">
      <!-- $\mathdefault{75}$ -->
      <g transform="translate(377.812716 54.537725)scale(0.15 -0.15)">
       <defs>
        <path id="CMR17-37" d="M 2886 3955 
L 2886 4096 
L 1382 4096 
C 634 4096 621 4166 595 4288 
L 480 4288 
L 294 3104 
L 410 3104 
C 429 3226 474 3552 550 3673 
C 589 3724 1062 3724 1171 3724 
L 2579 3724 
L 1869 2670 
C 1395 1961 1069 1003 1069 166 
C 1069 89 1069 -128 1299 -128 
C 1530 -128 1530 89 1530 172 
L 1530 466 
C 1530 1514 1709 2204 2003 2644 
L 2886 3955 
z
" transform="scale(0.015625)"/>
       </defs>
       <use xlink:href="#CMR17-37" transform="scale(0.996264)"/>
       <use xlink:href="#CMR17-35" transform="translate(45.690477 0)scale(0.996264)"/>
      </g>
     </g>
    </g>
    <g id="ytick_13">
     <g id="line2d_18">
      <g>
       <use xlink:href="#mc2f19cdbd6" x="370.812716" y="12.388862" style="stroke: #000000; stroke-width: 0.8"/>
      </g>
     </g>
     <g id="text_20">
      <!-- $\mathdefault{90}$ -->
      <g transform="translate(377.812716 17.577725)scale(0.15 -0.15)">
       <defs>
        <path id="CMR17-39" d="M 2253 1871 
C 2253 448 1670 25 1190 25 
C 1043 25 685 43 538 281 
C 704 256 826 345 826 505 
C 826 678 685 736 595 736 
C 538 736 365 710 365 492 
C 365 68 742 -128 1203 -128 
C 1939 -128 2688 665 2688 2090 
C 2688 3857 1971 4224 1485 4224 
C 851 4224 243 3664 243 2800 
C 243 2000 762 1408 1414 1408 
C 1952 1408 2189 1910 2253 2122 
L 2253 1871 
z
M 1427 1510 
C 1254 1510 1011 1542 813 1929 
C 678 2181 678 2477 678 2793 
C 678 3174 678 3438 858 3722 
C 947 3857 1114 4076 1485 4076 
C 2240 4076 2240 2909 2240 2651 
C 2240 2193 2035 1510 1427 1510 
z
" transform="scale(0.015625)"/>
       </defs>
       <use xlink:href="#CMR17-39" transform="scale(0.996264)"/>
       <use xlink:href="#CMR17-30" transform="translate(45.690477 0)scale(0.996264)"/>
      </g>
     </g>
    </g>
    <g id="text_21">
     <!-- $\gamma/\Omega$ -->
     <g transform="translate(407.653162 136.412323)rotate(-90)scale(0.15 -0.15)">
      <defs>
       <path id="CMMI12-d" d="M 2419 785 
C 2406 1097 2394 1586 2150 2158 
C 2022 2476 1805 2816 1338 2816 
C 550 2816 122 1815 122 1649 
C 122 1592 166 1592 186 1592 
C 243 1592 243 1605 275 1688 
C 410 2081 819 2393 1261 2393 
C 2150 2393 2278 1408 2278 779 
C 2278 378 2234 245 2195 118 
C 2074 -276 1862 -1064 1862 -1242 
C 1862 -1293 1882 -1351 1933 -1351 
C 2029 -1351 2086 -1140 2157 -886 
C 2310 -327 2349 -47 2381 207 
C 2400 360 2765 1409 3270 2407 
C 3315 2509 3405 2681 3405 2700 
C 3405 2707 3398 2752 3341 2752 
C 3328 2752 3296 2752 3283 2726 
C 3270 2713 3046 2280 2854 1848 
C 2758 1630 2630 1344 2419 785 
z
" transform="scale(0.015625)"/>
      </defs>
      <use xlink:href="#CMMI12-d" transform="scale(0.996264)"/>
      <use xlink:href="#CMMI12-3d" transform="translate(56.018568 0)scale(0.996264)"/>
      <use xlink:href="#CMR17-a" transform="translate(104.793487 0)scale(0.996264)"/>
     </g>
    </g>
   </g>
   <g id="LineCollection_1"/>
   <g id="patch_9">
    <path d="M 359.724716 234.148862 
L 365.268716 234.148862 
L 370.812716 234.148862 
L 370.812716 12.388862 
L 365.268716 12.388862 
L 359.724716 12.388862 
L 359.724716 234.148862 
z
" style="fill: none; stroke: #000000; stroke-width: 0.8; stroke-linejoin: miter; stroke-linecap: square"/>
   </g>
  </g>
 </g>
 <defs>
  <clipPath id="p156cc666fd">
   <rect x="52.757756" y="12.388862" width="288.91008" height="221.76"/>
  </clipPath>
  <clipPath id="p25a0487c17">
   <rect x="359.724716" y="12.388862" width="11.088" height="221.76"/>
  </clipPath>
 </defs>
</svg>
