<?xml version="1.0" encoding="utf-8" standalone="no"?>
<!DOCTYPE svg PUBLIC "-//W3C//DTD SVG 1.1//EN"
  "http://www.w3.org/Graphics/SVG/1.1/DTD/svg11.dtd">
<svg xmlns:xlink="http://www.w3.org/1999/xlink" width="434.325417pt" height="329.909612pt" viewBox="0 0 434.325417 329.909612" xmlns="http://www.w3.org/2000/svg" version="1.1">
 <metadata>
  <rdf:RDF xmlns:dc="http://purl.org/dc/elements/1.1/" xmlns:cc="http://creativecommons.org/ns#" xmlns:rdf="http://www.w3.org/1999/02/22-rdf-syntax-ns#">
   <cc:Work>
    <dc:type rdf:resource="http://purl.org/dc/dcmitype/StillImage"/>
    <dc:date>2024-11-05T16:44:04.754853</dc:date>
    <dc:format>image/svg+xml</dc:format>
    <dc:creator>
     <cc:Agent>
      <dc:title>Matplotlib v3.5.2, https://matplotlib.org/</dc:title>
     </cc:Agent>
    </dc:creator>
   </cc:Work>
  </rdf:RDF>
 </metadata>
 <defs>
  <style type="text/css">*{stroke-linejoin: round; stroke-linecap: butt}</style>
 </defs>
 <g id="figure_1">
  <g id="patch_1">
   <path d="M 0 329.909612 
L 434.325417 329.909612 
L 434.325417 0 
L 0 0 
z
" style="fill: #ffffff"/>
  </g>
  <g id="axes_1">
   <g id="patch_2">
    <path d="M 60.073994 278.500862 
L 417.193994 278.500862 
L 417.193994 12.388862 
L 60.073994 12.388862 
z
" style="fill: #ffffff"/>
   </g>
   <g id="matplotlib.axis_1">
    <g id="xtick_1">
     <g id="line2d_1">
      <defs>
       <path id="m95bd3a4a78" d="M 0 0 
L 0 3.5 
" style="stroke: #000000; stroke-width: 0.8"/>
      </defs>
      <g>
       <use xlink:href="#m95bd3a4a78" x="60.073994" y="278.500862" style="stroke: #000000; stroke-width: 0.8"/>
      </g>
     </g>
     <g id="text_1">
      <!-- $\mathdefault{10^{-6}}$ -->
      <g transform="translate(46.074497 295.878587)scale(0.15 -0.15)">
       <defs>
        <path id="CMR17-31" d="M 1702 4083 
C 1702 4217 1696 4224 1606 4224 
C 1357 3927 979 3833 621 3820 
C 602 3820 570 3820 563 3808 
C 557 3795 557 3782 557 3648 
C 755 3648 1088 3686 1344 3839 
L 1344 467 
C 1344 243 1331 166 781 166 
L 589 166 
L 589 0 
C 896 6 1216 12 1523 12 
C 1830 12 2150 6 2458 0 
L 2458 166 
L 2266 166 
C 1715 166 1702 236 1702 467 
L 1702 4083 
z
" transform="scale(0.015625)"/>
        <path id="CMR17-30" d="M 2688 2038 
C 2688 2430 2682 3099 2413 3613 
C 2176 4063 1798 4224 1466 4224 
C 1158 4224 768 4082 525 3620 
C 269 3137 243 2539 243 2038 
C 243 1671 250 1112 448 623 
C 723 -39 1216 -128 1466 -128 
C 1760 -128 2208 -7 2470 604 
C 2662 1048 2688 1568 2688 2038 
z
M 1466 -26 
C 1056 -26 813 328 723 816 
C 653 1196 653 1749 653 2109 
C 653 2604 653 3015 736 3407 
C 858 3954 1216 4121 1466 4121 
C 1728 4121 2067 3947 2189 3420 
C 2272 3054 2278 2623 2278 2109 
C 2278 1691 2278 1176 2202 797 
C 2067 96 1690 -26 1466 -26 
z
" transform="scale(0.015625)"/>
        <path id="CMSY10-0" d="M 4218 1472 
C 4326 1472 4442 1472 4442 1600 
C 4442 1728 4326 1728 4218 1728 
L 755 1728 
C 646 1728 531 1728 531 1600 
C 531 1472 646 1472 755 1472 
L 4218 1472 
z
" transform="scale(0.015625)"/>
        <path id="CMR17-36" d="M 678 2198 
C 678 3712 1395 4076 1811 4076 
C 1946 4076 2272 4049 2400 3782 
C 2298 3782 2106 3782 2106 3558 
C 2106 3385 2246 3328 2336 3328 
C 2394 3328 2566 3353 2566 3571 
C 2566 3987 2246 4224 1805 4224 
C 1043 4224 243 3411 243 2011 
C 243 257 966 -128 1478 -128 
C 2099 -128 2688 431 2688 1295 
C 2688 2101 2170 2688 1517 2688 
C 1126 2688 838 2430 678 1979 
L 678 2198 
z
M 1478 25 
C 691 25 691 1212 691 1450 
C 691 1914 909 2585 1504 2585 
C 1613 2585 1926 2585 2138 2140 
C 2253 1889 2253 1624 2253 1302 
C 2253 954 2253 696 2118 438 
C 1978 173 1773 25 1478 25 
z
" transform="scale(0.015625)"/>
       </defs>
       <use xlink:href="#CMR17-31" transform="scale(0.996264)"/>
       <use xlink:href="#CMR17-30" transform="translate(45.690477 0)scale(0.996264)"/>
       <use xlink:href="#CMSY10-0" transform="translate(91.380954 36.153639)scale(0.697382)"/>
       <use xlink:href="#CMR17-36" transform="translate(145.621947 36.153639)scale(0.697382)"/>
      </g>
     </g>
    </g>
    <g id="xtick_2">
     <g id="line2d_2">
      <g>
       <use xlink:href="#m95bd3a4a78" x="149.353994" y="278.500862" style="stroke: #000000; stroke-width: 0.8"/>
      </g>
     </g>
     <g id="text_2">
      <!-- $\mathdefault{10^{-4}}$ -->
      <g transform="translate(135.354497 295.878587)scale(0.15 -0.15)">
       <defs>
        <path id="CMR17-34" d="M 2150 4147 
C 2150 4281 2144 4288 2029 4288 
L 128 1254 
L 128 1088 
L 1779 1088 
L 1779 460 
C 1779 230 1766 166 1318 166 
L 1197 166 
L 1197 0 
C 1402 12 1747 12 1965 12 
C 2182 12 2528 12 2733 0 
L 2733 166 
L 2611 166 
C 2163 166 2150 230 2150 460 
L 2150 1088 
L 2803 1088 
L 2803 1254 
L 2150 1254 
L 2150 4147 
z
M 1798 3723 
L 1798 1254 
L 256 1254 
L 1798 3723 
z
" transform="scale(0.015625)"/>
       </defs>
       <use xlink:href="#CMR17-31" transform="scale(0.996264)"/>
       <use xlink:href="#CMR17-30" transform="translate(45.690477 0)scale(0.996264)"/>
       <use xlink:href="#CMSY10-0" transform="translate(91.380954 36.153639)scale(0.697382)"/>
       <use xlink:href="#CMR17-34" transform="translate(145.621947 36.153639)scale(0.697382)"/>
      </g>
     </g>
    </g>
    <g id="xtick_3">
     <g id="line2d_3">
      <g>
       <use xlink:href="#m95bd3a4a78" x="238.633994" y="278.500862" style="stroke: #000000; stroke-width: 0.8"/>
      </g>
     </g>
     <g id="text_3">
      <!-- $\mathdefault{10^{-2}}$ -->
      <g transform="translate(224.634497 295.878587)scale(0.15 -0.15)">
       <defs>
        <path id="CMR17-32" d="M 2669 990 
L 2554 990 
C 2490 537 2438 460 2413 422 
C 2381 371 1920 371 1830 371 
L 602 371 
C 832 620 1280 1073 1824 1596 
C 2214 1966 2669 2400 2669 3033 
C 2669 3788 2067 4224 1395 4224 
C 691 4224 262 3603 262 3027 
C 262 2777 448 2745 525 2745 
C 589 2745 781 2783 781 3007 
C 781 3206 614 3264 525 3264 
C 486 3264 448 3257 422 3244 
C 544 3788 915 4057 1306 4057 
C 1862 4057 2227 3616 2227 3033 
C 2227 2477 1901 1998 1536 1583 
L 262 147 
L 262 0 
L 2515 0 
L 2669 990 
z
" transform="scale(0.015625)"/>
       </defs>
       <use xlink:href="#CMR17-31" transform="scale(0.996264)"/>
       <use xlink:href="#CMR17-30" transform="translate(45.690477 0)scale(0.996264)"/>
       <use xlink:href="#CMSY10-0" transform="translate(91.380954 36.153639)scale(0.697382)"/>
       <use xlink:href="#CMR17-32" transform="translate(145.621947 36.153639)scale(0.697382)"/>
      </g>
     </g>
    </g>
    <g id="xtick_4">
     <g id="line2d_4">
      <g>
       <use xlink:href="#m95bd3a4a78" x="327.913994" y="278.500862" style="stroke: #000000; stroke-width: 0.8"/>
      </g>
     </g>
     <g id="text_4">
      <!-- $\mathdefault{10^{0}}$ -->
      <g transform="translate(317.98257 295.878587)scale(0.15 -0.15)">
       <use xlink:href="#CMR17-31" transform="scale(0.996264)"/>
       <use xlink:href="#CMR17-30" transform="translate(45.690477 0)scale(0.996264)"/>
       <use xlink:href="#CMR17-30" transform="translate(91.380954 36.153639)scale(0.697382)"/>
      </g>
     </g>
    </g>
    <g id="xtick_5">
     <g id="line2d_5">
      <g>
       <use xlink:href="#m95bd3a4a78" x="417.193994" y="278.500862" style="stroke: #000000; stroke-width: 0.8"/>
      </g>
     </g>
     <g id="text_5">
      <!-- $\mathdefault{10^{2}}$ -->
      <g transform="translate(407.26257 295.878587)scale(0.15 -0.15)">
       <use xlink:href="#CMR17-31" transform="scale(0.996264)"/>
       <use xlink:href="#CMR17-30" transform="translate(45.690477 0)scale(0.996264)"/>
       <use xlink:href="#CMR17-32" transform="translate(91.380954 36.153639)scale(0.697382)"/>
      </g>
     </g>
    </g>
    <g id="text_6">
     <!-- $\tau/\rm s$ -->
     <g transform="translate(224.827256 317.728292)scale(0.2 -0.2)">
      <defs>
       <path id="CMMI12-1c" d="M 1837 2406 
L 2899 2406 
C 2982 2406 3194 2406 3194 2611 
C 3194 2752 3072 2752 2957 2752 
L 1197 2752 
C 1050 2752 832 2752 538 2438 
C 371 2253 166 1916 166 1878 
C 166 1839 198 1827 237 1827 
C 282 1827 288 1846 320 1884 
C 653 2406 986 2406 1146 2406 
L 1677 2406 
L 1011 223 
C 979 127 979 114 979 95 
C 979 25 1024 -64 1152 -64 
C 1350 -64 1382 108 1402 204 
L 1837 2406 
z
" transform="scale(0.015625)"/>
       <path id="CMMI12-3d" d="M 2746 4563 
C 2746 4569 2784 4665 2784 4678 
C 2784 4755 2720 4800 2669 4800 
C 2637 4800 2579 4800 2528 4659 
L 384 -1364 
C 384 -1370 346 -1466 346 -1479 
C 346 -1556 410 -1600 461 -1600 
C 499 -1600 557 -1594 602 -1460 
L 2746 4563 
z
" transform="scale(0.015625)"/>
       <path id="CMR17-73" d="M 1978 2688 
C 1978 2803 1971 2809 1933 2809 
C 1907 2809 1901 2803 1824 2707 
C 1805 2681 1747 2617 1728 2592 
C 1523 2809 1235 2816 1126 2816 
C 416 2816 160 2444 160 2073 
C 160 1497 813 1363 998 1324 
C 1402 1241 1542 1216 1677 1100 
C 1760 1024 1901 883 1901 652 
C 1901 384 1747 38 1158 38 
C 602 38 403 460 288 1024 
C 269 1113 269 1120 218 1120 
C 166 1120 160 1113 160 985 
L 160 64 
C 160 -52 166 -58 205 -58 
C 237 -58 243 -52 275 0 
C 314 57 410 211 448 275 
C 576 102 800 -64 1158 -64 
C 1792 -64 2131 281 2131 780 
C 2131 1107 1958 1280 1875 1356 
C 1683 1555 1459 1600 1190 1651 
C 838 1728 390 1817 390 2208 
C 390 2374 480 2726 1126 2726 
C 1811 2726 1850 2086 1862 1881 
C 1869 1849 1901 1843 1920 1843 
C 1978 1843 1978 1862 1978 1971 
L 1978 2688 
z
" transform="scale(0.015625)"/>
      </defs>
      <use xlink:href="#CMMI12-1c" transform="scale(0.996264)"/>
      <use xlink:href="#CMMI12-3d" transform="translate(53.491165 0)scale(0.996264)"/>
      <use xlink:href="#CMR17-73" transform="translate(102.266084 0)scale(0.996264)"/>
     </g>
    </g>
   </g>
   <g id="matplotlib.axis_2">
    <g id="ytick_1">
     <g id="line2d_6">
      <defs>
       <path id="mb55b06414a" d="M 0 0 
L -3.5 0 
" style="stroke: #000000; stroke-width: 0.8"/>
      </defs>
      <g>
       <use xlink:href="#mb55b06414a" x="60.073994" y="278.500862" style="stroke: #000000; stroke-width: 0.8"/>
      </g>
     </g>
     <g id="text_7">
      <!-- $\mathdefault{0}$ -->
      <g transform="translate(45.757756 283.689725)scale(0.15 -0.15)">
       <use xlink:href="#CMR17-30" transform="scale(0.996264)"/>
      </g>
     </g>
    </g>
    <g id="ytick_2">
     <g id="line2d_7">
      <g>
       <use xlink:href="#mb55b06414a" x="60.073994" y="225.278462" style="stroke: #000000; stroke-width: 0.8"/>
      </g>
     </g>
     <g id="text_8">
      <!-- $\mathdefault{20}$ -->
      <g transform="translate(38.441518 230.467325)scale(0.15 -0.15)">
       <use xlink:href="#CMR17-32" transform="scale(0.996264)"/>
       <use xlink:href="#CMR17-30" transform="translate(45.690477 0)scale(0.996264)"/>
      </g>
     </g>
    </g>
    <g id="ytick_3">
     <g id="line2d_8">
      <g>
       <use xlink:href="#mb55b06414a" x="60.073994" y="172.056062" style="stroke: #000000; stroke-width: 0.8"/>
      </g>
     </g>
     <g id="text_9">
      <!-- $\mathdefault{40}$ -->
      <g transform="translate(38.441518 177.244925)scale(0.15 -0.15)">
       <use xlink:href="#CMR17-34" transform="scale(0.996264)"/>
       <use xlink:href="#CMR17-30" transform="translate(45.690477 0)scale(0.996264)"/>
      </g>
     </g>
    </g>
    <g id="ytick_4">
     <g id="line2d_9">
      <g>
       <use xlink:href="#mb55b06414a" x="60.073994" y="118.833662" style="stroke: #000000; stroke-width: 0.8"/>
      </g>
     </g>
     <g id="text_10">
      <!-- $\mathdefault{60}$ -->
      <g transform="translate(38.441518 124.022525)scale(0.15 -0.15)">
       <use xlink:href="#CMR17-36" transform="scale(0.996264)"/>
       <use xlink:href="#CMR17-30" transform="translate(45.690477 0)scale(0.996264)"/>
      </g>
     </g>
    </g>
    <g id="ytick_5">
     <g id="line2d_10">
      <g>
       <use xlink:href="#mb55b06414a" x="60.073994" y="65.611262" style="stroke: #000000; stroke-width: 0.8"/>
      </g>
     </g>
     <g id="text_11">
      <!-- $\mathdefault{80}$ -->
      <g transform="translate(38.441518 70.800125)scale(0.15 -0.15)">
       <defs>
        <path id="CMR17-38" d="M 1741 2289 
C 2144 2494 2554 2803 2554 3298 
C 2554 3884 1990 4224 1472 4224 
C 890 4224 378 3800 378 3215 
C 378 3054 416 2777 666 2533 
C 730 2469 998 2276 1171 2154 
C 883 2006 211 1652 211 945 
C 211 282 838 -128 1459 -128 
C 2144 -128 2720 366 2720 1022 
C 2720 1607 2330 1877 2074 2051 
L 1741 2289 
z
M 902 2855 
C 851 2887 595 3086 595 3388 
C 595 3781 998 4076 1459 4076 
C 1965 4076 2336 3716 2336 3298 
C 2336 2700 1670 2359 1638 2359 
C 1632 2359 1626 2359 1574 2398 
L 902 2855 
z
M 2080 1536 
C 2176 1466 2483 1253 2483 861 
C 2483 385 2010 25 1472 25 
C 890 25 448 443 448 951 
C 448 1459 838 1884 1280 2083 
L 2080 1536 
z
" transform="scale(0.015625)"/>
       </defs>
       <use xlink:href="#CMR17-38" transform="scale(0.996264)"/>
       <use xlink:href="#CMR17-30" transform="translate(45.690477 0)scale(0.996264)"/>
      </g>
     </g>
    </g>
    <g id="ytick_6">
     <g id="line2d_11">
      <g>
       <use xlink:href="#mb55b06414a" x="60.073994" y="12.388862" style="stroke: #000000; stroke-width: 0.8"/>
      </g>
     </g>
     <g id="text_12">
      <!-- $\mathdefault{100}$ -->
      <g transform="translate(31.12528 17.577725)scale(0.15 -0.15)">
       <use xlink:href="#CMR17-31" transform="scale(0.996264)"/>
       <use xlink:href="#CMR17-30" transform="translate(45.690477 0)scale(0.996264)"/>
       <use xlink:href="#CMR17-30" transform="translate(91.380954 0)scale(0.996264)"/>
      </g>
     </g>
    </g>
    <g id="text_13">
     <!-- $\gamma/\Omega$ -->
     <g transform="translate(22.14396 162.575196)rotate(-90)scale(0.2 -0.2)">
      <defs>
       <path id="CMMI12-d" d="M 2419 785 
C 2406 1097 2394 1586 2150 2158 
C 2022 2476 1805 2816 1338 2816 
C 550 2816 122 1815 122 1649 
C 122 1592 166 1592 186 1592 
C 243 1592 243 1605 275 1688 
C 410 2081 819 2393 1261 2393 
C 2150 2393 2278 1408 2278 779 
C 2278 378 2234 245 2195 118 
C 2074 -276 1862 -1064 1862 -1242 
C 1862 -1293 1882 -1351 1933 -1351 
C 2029 -1351 2086 -1140 2157 -886 
C 2310 -327 2349 -47 2381 207 
C 2400 360 2765 1409 3270 2407 
C 3315 2509 3405 2681 3405 2700 
C 3405 2707 3398 2752 3341 2752 
C 3328 2752 3296 2752 3283 2726 
C 3270 2713 3046 2280 2854 1848 
C 2758 1630 2630 1344 2419 785 
z
" transform="scale(0.015625)"/>
       <path id="CMR17-a" d="M 4038 935 
L 3923 935 
C 3866 640 3846 563 3814 461 
C 3782 364 3763 313 3392 313 
L 2874 313 
C 2944 685 3098 961 3366 1390 
C 3699 1935 3974 2377 3974 2909 
C 3974 3775 3155 4480 2138 4480 
C 1094 4480 294 3768 294 2909 
C 294 2377 576 1922 890 1416 
C 1171 961 1325 685 1395 313 
L 877 313 
C 512 313 493 364 461 454 
C 422 557 410 640 346 935 
L 230 935 
L 416 0 
L 1382 0 
C 1517 0 1523 6 1523 102 
C 1523 557 1286 1153 1178 1428 
C 973 1928 781 2416 781 2916 
C 781 3871 1466 4377 2131 4377 
C 2829 4377 3488 3852 3488 2916 
C 3488 2422 3315 1980 3078 1396 
C 2976 1134 2746 550 2746 102 
C 2746 0 2752 0 2886 0 
L 3853 0 
L 4038 935 
z
" transform="scale(0.015625)"/>
      </defs>
      <use xlink:href="#CMMI12-d" transform="scale(0.996264)"/>
      <use xlink:href="#CMMI12-3d" transform="translate(56.018568 0)scale(0.996264)"/>
      <use xlink:href="#CMR17-a" transform="translate(104.793487 0)scale(0.996264)"/>
     </g>
    </g>
   </g>
   <g id="line2d_12">
    <path d="M 149.353994 48.721285 
L 155.022565 278.500307 
L 160.691136 278.500467 
L 166.359708 278.500453 
L 172.028279 278.50033 
L 177.696851 278.500007 
L 183.365422 278.499069 
L 189.033994 278.494808 
L 194.702565 263.333571 
L 200.371136 265.601815 
L 206.039708 278.488444 
L 211.708279 278.494729 
L 217.376851 278.496051 
L 223.045422 278.496065 
L 228.713994 278.49521 
L 234.382565 278.493087 
L 240.051136 278.487943 
L 245.719708 278.473293 
L 251.388279 278.400421 
L 257.056851 267.696093 
L 262.725422 278.366817 
L 268.393994 278.416012 
L 274.062565 278.407905 
L 279.731136 278.465586 
L 285.399708 268.360865 
L 291.068279 278.334018 
L 296.736851 278.383782 
L 302.405422 278.381575 
L 308.073994 278.285697 
L 313.742565 277.219949 
L 319.411136 273.627197 
L 325.079708 278.497413 
L 330.748279 278.491156 
L 336.416851 278.495287 
L 342.085422 278.497383 
L 347.753994 278.498373 
L 353.422565 278.49883 
L 359.091136 278.498993 
L 364.759708 278.498947 
L 370.428279 278.498692 
L 376.096851 278.498161 
L 381.765422 278.497194 
L 387.433994 278.495471 
L 393.102565 278.492357 
L 398.771136 278.486544 
L 404.439708 278.47523 
L 410.108279 278.452301 
L 415.776851 278.404555 
L 421.445422 278.304736 
L 427.113994 278.10055 
L 432.782565 277.700655 
L 435.325417 277.368878 
" clip-path="url(#p98d4303969)" style="fill: none; stroke: #000000; stroke-width: 4; stroke-linecap: square"/>
   </g>
   <g id="line2d_13">
    <path d="M 149.353994 48.668996 
L 155.022565 278.497902 
L 160.691136 278.498745 
L 166.359708 278.498644 
L 172.028279 278.497932 
L 177.696851 278.496068 
L 183.365422 278.490639 
L 189.033994 278.465965 
L 194.702565 268.273371 
L 200.371136 260.905387 
L 206.039708 278.42616 
L 211.708279 278.464414 
L 217.376851 278.472377 
L 223.045422 278.471804 
L 228.713994 278.464232 
L 234.382565 278.444343 
L 240.051136 278.390864 
L 245.719708 278.18898 
L 251.388279 275.314963 
L 257.056851 262.399623 
L 262.725422 277.47067 
L 268.393994 277.830054 
L 274.062565 277.652552 
L 279.731136 276.013545 
L 285.399708 249.660038 
L 291.068279 262.030464 
L 296.736851 276.569591 
L 302.405422 277.628924 
L 308.073994 277.789197 
L 313.742565 277.532047 
L 319.411136 276.594687 
L 325.079708 276.945578 
L 330.748279 278.044874 
L 336.416851 278.227372 
L 342.085422 278.48895 
L 347.753994 275.481486 
L 353.422565 278.389066 
L 359.091136 278.439271 
L 364.759708 278.466304 
L 370.428279 278.476697 
L 376.096851 278.480155 
L 381.765422 278.479844 
L 387.433994 278.47644 
L 393.102565 278.46947 
L 398.771136 278.457658 
L 404.439708 278.438974 
L 410.108279 278.410579 
L 415.776851 278.368737 
L 421.445422 278.308645 
L 427.113994 278.224129 
L 432.782565 278.107152 
L 435.325417 278.035361 
" clip-path="url(#p98d4303969)" style="fill: none; stroke: #0000ff; stroke-width: 4; stroke-linecap: square"/>
   </g>
   <g id="line2d_14">
    <path d="M 149.353994 47.541698 
L 155.022565 278.50007 
L 160.691136 278.500305 
L 166.359708 278.500292 
L 172.028279 278.500127 
L 177.696851 278.499683 
L 183.365422 278.498369 
L 189.033994 278.492284 
L 194.702565 263.637641 
L 200.371136 267.639763 
L 206.039708 278.480314 
L 211.708279 278.488829 
L 217.376851 278.488604 
L 223.045422 278.482403 
L 228.713994 278.460627 
L 234.382565 268.131874 
L 240.051136 273.198172 
L 245.719708 278.273043 
L 251.388279 278.376407 
L 257.056851 278.345041 
L 262.725422 278.017954 
L 268.393994 257.653904 
L 274.062565 249.403048 
L 279.731136 273.694771 
L 285.399708 273.319178 
L 291.068279 263.029943 
L 296.736851 257.260065 
L 302.405422 265.095228 
L 308.073994 274.439126 
L 313.742565 277.648271 
L 319.411136 278.233171 
L 325.079708 278.360349 
L 330.748279 278.372085 
L 336.416851 278.222017 
L 342.085422 275.824694 
L 347.753994 277.06749 
L 353.422565 278.408698 
L 359.091136 278.478944 
L 364.759708 278.489989 
L 370.428279 278.492837 
L 376.096851 278.49312 
L 381.765422 278.491652 
L 387.433994 278.487926 
L 393.102565 278.480361 
L 398.771136 278.465927 
L 404.439708 278.439618 
L 410.108279 278.393996 
L 415.776851 278.318855 
L 421.445422 278.200874 
L 427.113994 278.023067 
L 432.782565 277.763865 
L 435.325417 277.598691 
" clip-path="url(#p98d4303969)" style="fill: none; stroke: #ff00ff; stroke-width: 4; stroke-linecap: square"/>
   </g>
   <g id="line2d_15">
    <path d="M 149.353994 47.511226 
L 155.022565 278.500063 
L 160.691136 278.500289 
L 166.359708 278.50026 
L 172.028279 278.500064 
L 177.696851 278.499553 
L 183.365422 278.49809 
L 189.033994 278.49191 
L 194.702565 278.372708 
L 200.371136 246.400424 
L 206.039708 278.468674 
L 211.708279 278.48473 
L 217.376851 278.487914 
L 223.045422 278.487577 
L 228.713994 278.483895 
L 234.382565 278.471798 
L 240.051136 278.422455 
L 245.719708 270.592433 
L 251.388279 268.149379 
L 257.056851 278.084009 
L 262.725422 278.027934 
L 268.393994 274.082185 
L 274.062565 236.613989 
L 279.731136 251.336705 
L 285.399708 243.412679 
L 291.068279 253.550345 
L 296.736851 278.001036 
L 302.405422 278.279532 
L 308.073994 278.223389 
L 313.742565 274.268915 
L 319.411136 253.245736 
L 325.079708 278.346926 
L 330.748279 278.443949 
L 336.416851 278.465271 
L 342.085422 278.476071 
L 347.753994 278.484516 
L 353.422565 278.48992 
L 359.091136 278.492517 
L 364.759708 278.493171 
L 370.428279 278.492084 
L 376.096851 278.488196 
L 381.765422 278.477313 
L 387.433994 278.445908 
L 393.102565 278.359853 
L 398.771136 278.175366 
L 404.439708 277.913797 
L 410.108279 277.672946 
L 415.776851 277.497013 
L 421.445422 277.35143 
L 427.113994 277.188469 
L 432.782565 276.972584 
L 435.325417 276.839272 
" clip-path="url(#p98d4303969)" style="fill: none; stroke: #00ffff; stroke-width: 4; stroke-linecap: square"/>
   </g>
   <g id="line2d_16">
    <path d="M 149.353994 45.167516 
L 155.022565 278.500408 
L 160.691136 278.50054 
L 166.359708 278.500532 
L 172.028279 278.500446 
L 177.696851 278.500239 
L 183.365422 278.499735 
L 189.033994 278.49824 
L 194.702565 278.491104 
L 200.371136 265.331003 
L 206.039708 260.732058 
L 211.708279 278.471608 
L 217.376851 278.484366 
L 223.045422 278.486715 
L 228.713994 278.486237 
L 234.382565 278.482489 
L 240.051136 278.468364 
L 245.719708 278.388533 
L 251.388279 247.663328 
L 257.056851 277.799533 
L 262.725422 278.231413 
L 268.393994 277.781015 
L 274.062565 235.398993 
L 279.731136 232.012192 
L 285.399708 257.976788 
L 291.068279 249.848217 
L 296.736851 244.723264 
L 302.405422 270.015864 
L 308.073994 275.185303 
L 313.742565 272.728465 
L 319.411136 274.58539 
L 325.079708 277.890359 
L 330.748279 278.371439 
L 336.416851 278.41459 
L 342.085422 269.584806 
L 347.753994 277.834685 
L 353.422565 278.479678 
L 359.091136 278.494873 
L 364.759708 278.49791 
L 370.428279 278.498905 
L 376.096851 278.499273 
L 381.765422 278.49936 
L 387.433994 278.499269 
L 393.102565 278.499023 
L 398.771136 278.498607 
L 404.439708 278.49799 
L 410.108279 278.497118 
L 415.776851 278.495916 
L 421.445422 278.49428 
L 427.113994 278.49207 
L 432.782565 278.489096 
L 435.325417 278.487304 
" clip-path="url(#p98d4303969)" style="fill: none; stroke: #008000; stroke-width: 4; stroke-linecap: square"/>
   </g>
   <g id="line2d_17">
    <path d="M 149.353994 47.203809 
L 155.022565 278.500005 
L 160.691136 278.50026 
L 166.359708 278.500252 
L 172.028279 278.500095 
L 177.696851 278.4997 
L 183.365422 278.498692 
L 189.033994 278.495483 
L 194.702565 278.478889 
L 200.371136 249.654916 
L 206.039708 276.833895 
L 211.708279 278.43785 
L 217.376851 278.475278 
L 223.045422 278.482149 
L 228.713994 278.481564 
L 234.382565 278.472995 
L 240.051136 278.434906 
L 245.719708 266.67773 
L 251.388279 248.599037 
L 257.056851 278.272209 
L 262.725422 278.336107 
L 268.393994 278.140186 
L 274.062565 219.20228 
L 279.731136 199.705731 
L 285.399708 275.488009 
L 291.068279 277.011685 
L 296.736851 257.191781 
L 302.405422 206.149782 
L 308.073994 277.186471 
L 313.742565 278.340852 
L 319.411136 278.428018 
L 325.079708 278.44322 
L 330.748279 278.427976 
L 336.416851 276.195547 
L 342.085422 267.23692 
L 347.753994 278.476191 
L 353.422565 278.483733 
L 359.091136 278.489188 
L 364.759708 278.491212 
L 370.428279 278.491669 
L 376.096851 278.491143 
L 381.765422 278.489711 
L 387.433994 278.487204 
L 393.102565 278.48331 
L 398.771136 278.47763 
L 404.439708 278.46968 
L 410.108279 278.458831 
L 415.776851 278.444218 
L 421.445422 278.424642 
L 427.113994 278.398456 
L 432.782565 278.36343 
L 435.325417 278.342405 
" clip-path="url(#p98d4303969)" style="fill: none; stroke: #ffff00; stroke-width: 4; stroke-linecap: square"/>
   </g>
   <g id="patch_3">
    <path d="M 60.073994 278.500862 
L 60.073994 12.388862 
" style="fill: none; stroke: #000000; stroke-width: 0.8; stroke-linejoin: miter; stroke-linecap: square"/>
   </g>
   <g id="patch_4">
    <path d="M 417.193994 278.500862 
L 417.193994 12.388862 
" style="fill: none; stroke: #000000; stroke-width: 0.8; stroke-linejoin: miter; stroke-linecap: square"/>
   </g>
   <g id="patch_5">
    <path d="M 60.073994 278.500862 
L 417.193994 278.500862 
" style="fill: none; stroke: #000000; stroke-width: 0.8; stroke-linejoin: miter; stroke-linecap: square"/>
   </g>
   <g id="patch_6">
    <path d="M 60.073994 12.388862 
L 417.193994 12.388862 
" style="fill: none; stroke: #000000; stroke-width: 0.8; stroke-linejoin: miter; stroke-linecap: square"/>
   </g>
   <g id="legend_1">
    <g id="line2d_18">
     <path d="M 296.457612 31.138862 
L 311.457612 31.138862 
L 326.457612 31.138862 
" style="fill: none; stroke: #000000; stroke-width: 4; stroke-linecap: square"/>
    </g>
    <g id="text_14">
     <!-- $R_{\rm ct}= 5\Omega$ -->
     <g transform="translate(338.457612 36.388862)scale(0.15 -0.15)">
      <defs>
       <path id="CMMI12-52" d="M 2355 3917 
C 2413 4153 2438 4166 2688 4166 
L 3149 4166 
C 3699 4166 4109 4000 4109 3503 
C 4109 3177 3942 2240 2656 2240 
L 1933 2240 
L 2355 3917 
z
M 3245 2163 
C 4038 2335 4659 2846 4659 3394 
C 4659 3892 4154 4352 3264 4352 
L 1530 4352 
C 1402 4352 1344 4352 1344 4230 
C 1344 4166 1389 4166 1510 4166 
C 1894 4166 1894 4115 1894 4045 
C 1894 4032 1894 3994 1869 3898 
L 1005 475 
C 947 253 934 190 493 190 
C 346 190 301 190 301 69 
C 301 6 371 6 390 6 
C 506 6 640 19 762 19 
L 1517 19 
C 1632 19 1766 6 1882 6 
C 1933 6 2003 6 2003 126 
C 2003 190 1946 190 1850 190 
C 1459 190 1459 241 1459 304 
C 1459 310 1459 355 1472 405 
L 1901 2112 
L 2669 2112 
C 3277 2112 3392 1731 3392 1522 
C 3392 1426 3328 1179 3283 1014 
C 3213 723 3194 653 3194 532 
C 3194 82 3565 -128 3994 -128 
C 4512 -128 4736 501 4736 589 
C 4736 634 4704 653 4666 653 
C 4614 653 4602 615 4589 564 
C 4435 114 4173 0 4013 0 
C 3853 0 3750 69 3750 355 
C 3750 507 3827 1084 3834 1116 
C 3866 1350 3866 1376 3866 1426 
C 3866 1889 3488 2086 3245 2163 
z
" transform="scale(0.015625)"/>
       <path id="CMR17-63" d="M 2234 2240 
C 2112 2240 1933 2240 1933 2015 
C 1933 1836 2080 1785 2163 1785 
C 2208 1785 2394 1804 2394 2028 
C 2394 2476 1958 2816 1466 2816 
C 787 2816 211 2201 211 1379 
C 211 521 813 -64 1466 -64 
C 2259 -64 2458 676 2458 747 
C 2458 773 2451 792 2406 792 
C 2362 792 2355 786 2330 702 
C 2163 180 1798 51 1523 51 
C 1114 51 621 431 621 1385 
C 621 2358 1094 2700 1472 2700 
C 1722 2700 2093 2582 2234 2240 
z
" transform="scale(0.015625)"/>
       <path id="CMR17-74" d="M 966 2585 
L 1862 2585 
L 1862 2752 
L 966 2752 
L 966 3968 
L 851 3968 
C 838 3292 614 2700 70 2687 
L 70 2585 
L 627 2585 
L 627 778 
C 627 655 627 -64 1370 -64 
C 1747 -64 1965 308 1965 784 
L 1965 1151 
L 1850 1151 
L 1850 790 
C 1850 347 1677 51 1408 51 
C 1222 51 966 179 966 765 
L 966 2585 
z
" transform="scale(0.015625)"/>
       <path id="CMR17-3d" d="M 4115 2048 
C 4211 2048 4307 2048 4307 2156 
C 4307 2272 4198 2272 4090 2272 
L 512 2272 
C 403 2272 294 2272 294 2156 
C 294 2048 390 2048 486 2048 
L 4115 2048 
z
M 4090 927 
C 4198 927 4307 927 4307 1043 
C 4307 1152 4211 1152 4115 1152 
L 486 1152 
C 390 1152 294 1152 294 1043 
C 294 927 403 927 512 927 
L 4090 927 
z
" transform="scale(0.015625)"/>
       <path id="CMR17-35" d="M 730 3750 
C 794 3724 1056 3641 1325 3641 
C 1920 3641 2246 3961 2432 4140 
C 2432 4191 2432 4224 2394 4224 
C 2387 4224 2374 4224 2323 4198 
C 2099 4102 1837 4032 1517 4032 
C 1325 4032 1037 4055 723 4191 
C 653 4224 640 4224 634 4224 
C 602 4224 595 4217 595 4090 
L 595 2231 
C 595 2113 595 2080 659 2080 
C 691 2080 704 2093 736 2139 
C 941 2435 1222 2560 1542 2560 
C 1766 2560 2246 2415 2246 1293 
C 2246 1087 2246 716 2054 422 
C 1894 159 1645 25 1370 25 
C 947 25 518 319 403 812 
C 429 806 480 793 506 793 
C 589 793 749 838 749 1036 
C 749 1209 627 1280 506 1280 
C 358 1280 262 1190 262 1011 
C 262 454 704 -128 1382 -128 
C 2042 -128 2669 441 2669 1267 
C 2669 2054 2170 2662 1549 2662 
C 1222 2662 947 2540 730 2304 
L 730 3750 
z
" transform="scale(0.015625)"/>
      </defs>
      <use xlink:href="#CMMI12-52" transform="scale(0.996264)"/>
      <use xlink:href="#CMR17-63" transform="translate(74.250826 -14.943915)scale(0.697382)"/>
      <use xlink:href="#CMR17-74" transform="translate(102.590657 -14.943915)scale(0.697382)"/>
      <use xlink:href="#CMR17-3d" transform="translate(155.459218 0)scale(0.996264)"/>
      <use xlink:href="#CMR17-35" transform="translate(254.848016 0)scale(0.996264)"/>
      <use xlink:href="#CMR17-a" transform="translate(300.538493 0)scale(0.996264)"/>
     </g>
    </g>
    <g id="line2d_19">
     <path d="M 296.457612 52.044607 
L 311.457612 52.044607 
L 326.457612 52.044607 
" style="fill: none; stroke: #0000ff; stroke-width: 4; stroke-linecap: square"/>
    </g>
    <g id="text_15">
     <!-- $ R_{\rm ct} = 15\Omega$ -->
     <g transform="translate(338.457612 57.294607)scale(0.15 -0.15)">
      <use xlink:href="#CMMI12-52" transform="scale(0.996264)"/>
      <use xlink:href="#CMR17-63" transform="translate(74.250826 -14.943915)scale(0.697382)"/>
      <use xlink:href="#CMR17-74" transform="translate(102.590657 -14.943915)scale(0.697382)"/>
      <use xlink:href="#CMR17-3d" transform="translate(155.459218 0)scale(0.996264)"/>
      <use xlink:href="#CMR17-31" transform="translate(254.848016 0)scale(0.996264)"/>
      <use xlink:href="#CMR17-35" transform="translate(300.538493 0)scale(0.996264)"/>
      <use xlink:href="#CMR17-a" transform="translate(346.22897 0)scale(0.996264)"/>
     </g>
    </g>
    <g id="line2d_20">
     <path d="M 296.457612 72.950352 
L 311.457612 72.950352 
L 326.457612 72.950352 
" style="fill: none; stroke: #ff00ff; stroke-width: 4; stroke-linecap: square"/>
    </g>
    <g id="text_16">
     <!-- $ R_{\rm ct} = 25\Omega$ -->
     <g transform="translate(338.457612 78.200352)scale(0.15 -0.15)">
      <use xlink:href="#CMMI12-52" transform="scale(0.996264)"/>
      <use xlink:href="#CMR17-63" transform="translate(74.250826 -14.943915)scale(0.697382)"/>
      <use xlink:href="#CMR17-74" transform="translate(102.590657 -14.943915)scale(0.697382)"/>
      <use xlink:href="#CMR17-3d" transform="translate(155.459218 0)scale(0.996264)"/>
      <use xlink:href="#CMR17-32" transform="translate(254.848016 0)scale(0.996264)"/>
      <use xlink:href="#CMR17-35" transform="translate(300.538493 0)scale(0.996264)"/>
      <use xlink:href="#CMR17-a" transform="translate(346.22897 0)scale(0.996264)"/>
     </g>
    </g>
    <g id="line2d_21">
     <path d="M 296.457612 93.856096 
L 311.457612 93.856096 
L 326.457612 93.856096 
" style="fill: none; stroke: #00ffff; stroke-width: 4; stroke-linecap: square"/>
    </g>
    <g id="text_17">
     <!-- $ R_{\rm ct} = 35\Omega$ -->
     <g transform="translate(338.457612 99.106096)scale(0.15 -0.15)">
      <defs>
       <path id="CMR17-33" d="M 1414 2176 
C 1984 2176 2234 1673 2234 1094 
C 2234 322 1824 25 1453 25 
C 1114 25 563 193 390 691 
C 422 678 454 678 486 678 
C 640 678 755 780 755 947 
C 755 1132 614 1216 486 1216 
C 378 1216 211 1164 211 927 
C 211 335 787 -128 1466 -128 
C 2176 -128 2720 432 2720 1087 
C 2720 1718 2208 2176 1600 2246 
C 2086 2347 2554 2776 2554 3353 
C 2554 3856 2048 4224 1472 4224 
C 890 4224 378 3862 378 3347 
C 378 3123 544 3084 627 3084 
C 762 3084 877 3167 877 3334 
C 877 3500 762 3584 627 3584 
C 602 3584 570 3584 544 3571 
C 730 3999 1235 4076 1459 4076 
C 1683 4076 2106 3966 2106 3347 
C 2106 3167 2080 2851 1862 2574 
C 1670 2329 1453 2316 1242 2297 
C 1210 2297 1062 2284 1037 2284 
C 992 2278 966 2272 966 2227 
C 966 2182 973 2176 1101 2176 
L 1414 2176 
z
" transform="scale(0.015625)"/>
      </defs>
      <use xlink:href="#CMMI12-52" transform="scale(0.996264)"/>
      <use xlink:href="#CMR17-63" transform="translate(74.250826 -14.943915)scale(0.697382)"/>
      <use xlink:href="#CMR17-74" transform="translate(102.590657 -14.943915)scale(0.697382)"/>
      <use xlink:href="#CMR17-3d" transform="translate(155.459218 0)scale(0.996264)"/>
      <use xlink:href="#CMR17-33" transform="translate(254.848016 0)scale(0.996264)"/>
      <use xlink:href="#CMR17-35" transform="translate(300.538493 0)scale(0.996264)"/>
      <use xlink:href="#CMR17-a" transform="translate(346.22897 0)scale(0.996264)"/>
     </g>
    </g>
    <g id="line2d_22">
     <path d="M 296.457612 114.761841 
L 311.457612 114.761841 
L 326.457612 114.761841 
" style="fill: none; stroke: #008000; stroke-width: 4; stroke-linecap: square"/>
    </g>
    <g id="text_18">
     <!-- $ R_{\rm ct} = 45\Omega$ -->
     <g transform="translate(338.457612 120.011841)scale(0.15 -0.15)">
      <use xlink:href="#CMMI12-52" transform="scale(0.996264)"/>
      <use xlink:href="#CMR17-63" transform="translate(74.250826 -14.943915)scale(0.697382)"/>
      <use xlink:href="#CMR17-74" transform="translate(102.590657 -14.943915)scale(0.697382)"/>
      <use xlink:href="#CMR17-3d" transform="translate(155.459218 0)scale(0.996264)"/>
      <use xlink:href="#CMR17-34" transform="translate(254.848016 0)scale(0.996264)"/>
      <use xlink:href="#CMR17-35" transform="translate(300.538493 0)scale(0.996264)"/>
      <use xlink:href="#CMR17-a" transform="translate(346.22897 0)scale(0.996264)"/>
     </g>
    </g>
    <g id="line2d_23">
     <path d="M 296.457612 135.667586 
L 311.457612 135.667586 
L 326.457612 135.667586 
" style="fill: none; stroke: #ffff00; stroke-width: 4; stroke-linecap: square"/>
    </g>
    <g id="text_19">
     <!-- $ R_{\rm ct} = 55\Omega$ -->
     <g transform="translate(338.457612 140.917586)scale(0.15 -0.15)">
      <use xlink:href="#CMMI12-52" transform="scale(0.996264)"/>
      <use xlink:href="#CMR17-63" transform="translate(74.250826 -14.943915)scale(0.697382)"/>
      <use xlink:href="#CMR17-74" transform="translate(102.590657 -14.943915)scale(0.697382)"/>
      <use xlink:href="#CMR17-3d" transform="translate(155.459218 0)scale(0.996264)"/>
      <use xlink:href="#CMR17-35" transform="translate(254.848016 0)scale(0.996264)"/>
      <use xlink:href="#CMR17-35" transform="translate(300.538493 0)scale(0.996264)"/>
      <use xlink:href="#CMR17-a" transform="translate(346.22897 0)scale(0.996264)"/>
     </g>
    </g>
   </g>
  </g>
 </g>
 <defs>
  <clipPath id="p98d4303969">
   <rect x="60.073994" y="12.388862" width="357.12" height="266.112"/>
  </clipPath>
 </defs>
</svg>
